<svg fill="#333333" width="64px" height="64px" viewBox="0 0 24 24" id="Layer_1" data-name="Layer 1" xmlns="http://www.w3.org/2000/svg"><g id="SVGRepo_bgCarrier" stroke-width="0"></g><g id="SVGRepo_tracerCarrier" stroke-linecap="round" stroke-linejoin="round"></g><g id="SVGRepo_iconCarrier"><path d="M12,14a1.25,1.25,0,1,0,1.25,1.25A1.25,1.25,0,0,0,12,14Zm0-1.5a1,1,0,0,0,1-1v-3a1,1,0,0,0-2,0v3A1,1,0,0,0,12,12.5ZM12,2A10,10,0,1,0,22,12,10.01114,10.01114,0,0,0,12,2Zm0,18a8,8,0,1,1,8-8A8.00917,8.00917,0,0,1,12,20Z"></path></g></svg>