<svg xmlns="http://www.w3.org/2000/svg" xmlns:xlink="http://www.w3.org/1999/xlink" viewBox="0 0 500 500"><defs><clipPath id="freepik--clip-path--inject-319"><rect x="106.19" y="79.27" width="353.1" height="255.01" style="fill:#fff;stroke:#263238;stroke-linecap:round;stroke-linejoin:round"></rect></clipPath></defs><g id="freepik--background-simple--inject-319"><path d="M36.65,187.43S18.76,263.89,68.59,330.51,205.31,423,275.14,445.84s135.24-3.53,159.77-62.22-25-90.29-36-166.94S396.76,118,345.79,59.59s-155.58-57-226.3,2.95S36.65,187.43,36.65,187.43Z" style="fill:#00CA7D"></path><path d="M36.65,187.43S18.76,263.89,68.59,330.51,205.31,423,275.14,445.84s135.24-3.53,159.77-62.22-25-90.29-36-166.94S396.76,118,345.79,59.59s-155.58-57-226.3,2.95S36.65,187.43,36.65,187.43Z" style="fill:#fff;opacity:0.7000000000000001"></path></g><g id="freepik--Page--inject-319"><polygon points="200.42 72.04 190.53 56.28 103.53 56.28 103.53 72.04 103.53 77.72 103.53 340 461.64 340 461.64 72.04 200.42 72.04" style="fill:#263238"></polygon><rect x="106.19" y="79.27" width="353.1" height="255.01" style="fill:#fff"></rect><g style="clip-path:url(#freepik--clip-path--inject-319)"><rect x="452.82" y="77.09" width="8.2" height="259.13" style="opacity:0.17"></rect><rect x="452.82" y="233.76" width="8.2" height="100.35" style="opacity:0.17"></rect><rect x="104.79" y="75.83" width="354.96" height="13.87" style="fill:#00CA7D;stroke:#263238;stroke-miterlimit:10"></rect></g><rect x="106.19" y="79.27" width="353.1" height="255.01" style="fill:none;stroke:#263238;stroke-linecap:round;stroke-linejoin:round"></rect><g style="opacity:0.17"><path d="M290.16,103.07h-24.7a2.18,2.18,0,0,1-2.18-2.18h0a2.18,2.18,0,0,1,2.18-2.18h24.7a2.19,2.19,0,0,1,2.18,2.18h0A2.19,2.19,0,0,1,290.16,103.07Z"></path><path d="M339.56,103.07h-24.7a2.19,2.19,0,0,1-2.18-2.18h0a2.19,2.19,0,0,1,2.18-2.18h24.7a2.18,2.18,0,0,1,2.18,2.18h0A2.18,2.18,0,0,1,339.56,103.07Z"></path><path d="M389,103.07h-24.7a2.18,2.18,0,0,1-2.18-2.18h0a2.18,2.18,0,0,1,2.18-2.18H389a2.19,2.19,0,0,1,2.18,2.18h0A2.19,2.19,0,0,1,389,103.07Z"></path><path d="M438.37,103.07h-24.7a2.19,2.19,0,0,1-2.18-2.18h0a2.19,2.19,0,0,1,2.18-2.18h24.7a2.18,2.18,0,0,1,2.18,2.18h0A2.18,2.18,0,0,1,438.37,103.07Z"></path></g><polygon points="283.19 204.94 283.38 203.09 282.81 203.62 283.19 204.94 283.19 204.94" style="fill:#00CA7D"></polygon><polygon points="207.77 230.79 212.12 230.17 207.77 228.76 208.38 230.13 206.61 230.48 207.77 230.79 207.77 230.79" style="fill:#00CA7D"></polygon><polygon points="241.86 254.28 235.25 251.64 234.06 252.28 234.25 251.33 232.12 249.92 229.68 250.87 230.47 249.72 228.64 249.19 228.06 249.96 229.2 247.91 226.25 243.62 222.64 243.14 220.1 240.66 218.79 240.51 219.03 239.69 217.68 239.14 217.8 238.59 217.04 238.35 215.29 239.03 210.93 236.94 210.67 237.58 209.44 238.35 209.74 239.8 208.78 239.45 209.5 236.65 206.45 237.91 204.38 240.86 204.18 240.91 202.35 239.47 199.61 239.96 198.13 238.06 198.67 233.95 197.66 233.17 194.03 233.25 193.66 233.01 194.19 230.85 194.39 230.73 194.39 230.73 195.45 227.44 193.24 227.28 191.21 230.24 188.4 230.63 185.88 227.79 185.93 222.66 185.55 222.5 185.93 222.66 185.88 220.43 188.98 218.18 192 218.91 192.4 218.56 193.2 219.17 192.82 218.12 194.25 217.52 194.61 217.78 195.81 217.63 197.28 218.4 198.13 218.09 200.42 223.21 201.1 223.34 201.5 222.17 200.24 217.28 204.66 211.94 205.28 211.99 205.5 211.39 204.3 209.06 204.66 208.7 204.8 207.4 205.1 207.4 205.26 209.56 205.66 209.28 205.84 207.56 206.49 207.51 206.97 206.28 208.8 205.6 207.41 205.55 210.09 204.69 209.97 203.41 211.73 201.25 212.86 201.3 215.55 199.47 215.61 199.89 216.44 200.24 214.59 201.1 214.49 202.2 218.63 200.53 218.81 200.02 220.01 199.53 219.67 199.14 219.65 198.46 218.19 199.84 215.59 198.65 215.47 197.64 215.07 197.31 214.99 196.91 215.87 195.63 211.96 196.34 209.99 198.19 223.67 191.56 223.33 190.85 223.87 190.26 223.39 189.48 222.43 189.62 222.37 188.82 220.09 189.62 219.87 189.22 222.23 188.23 217.82 185.45 217.92 185.19 218.65 184.75 215.81 179.72 214.69 181.88 212.92 182.92 211.07 180.95 211.27 178.99 203.65 176.55 203.27 177.27 203.85 177.96 203.35 178.9 204 180.36 203.07 182.47 204.44 183.66 204.64 185.85 202.09 187.74 202.77 192.24 202.37 192.19 201.86 192.81 201.1 192.5 199.51 190.26 199.55 187.94 191.51 184.31 190.17 184.75 189.22 182.14 188.22 181.88 189.8 177.01 191.87 175.29 189.14 174.06 192.28 174.63 192.5 173.77 193.84 174.01 195.13 172.56 192.86 171.5 192.92 170.95 194.73 171.92 196.09 170.84 195.57 170.26 196.28 169.93 196.86 170.4 197.82 170.29 197.32 169.58 197.48 169.32 198.1 169.91 198.89 169.93 200.24 168.88 199.51 166.67 200.42 166.32 199.87 165.28 196.74 164.31 197.1 165.75 195.91 167.62 195.51 167 195.39 167.77 195.73 168.39 195.09 168.88 193.99 167.4 194.37 166.96 194.35 166.3 193.74 165.61 192.9 165.39 192.16 166.89 191.97 165.28 192.2 164.89 191.29 164.49 190.61 164.69 190.65 163.83 191.17 163.63 189.8 162.46 189.84 161.58 188.46 160.26 189.12 159.73 189.32 158.76 190.73 158.89 192.03 156.93 187.71 156.47 187.96 157.06 187.37 157 187.87 160.39 187.31 160.96 187.59 161.56 186.85 161.47 186.89 164.16 188.72 164.87 188.42 166.16 188.86 165.81 189.26 166.36 187.75 167.35 187.75 168.32 187.27 168.7 186.79 167.88 186.91 167.11 185.86 166.78 188.06 166.19 187.55 165.33 186.83 165.26 187.57 165.11 186.03 164.51 184.06 165.46 185.54 166.54 184.76 167.07 184.7 167.71 179.69 167.31 178.43 166.08 175.61 166.78 176.01 167.2 178.06 166.52 176.58 167.38 176.46 169.49 175.9 169.23 175.79 168.41 169.58 167.8 170.61 167.03 170.27 166.28 161.28 165.13 161.02 163.72 159.79 165.13 158.43 163.15 153.14 166.28 153.36 165.72 156.54 163.87 152.68 165.09 152 164.71 150.75 165.7 151.11 166.28 135.67 163.1 135.39 162.59 133.82 162.62 133.38 162.22 132.22 162.49 132.58 162.04 131.85 161.67 128.64 162.93 128.84 163.45 126.85 163.63 125.4 165.66 123.11 166.16 122.87 166.78 125.36 169.21 126.89 169.25 127.19 170.11 128.16 170.33 125.14 170.86 125.14 170.18 121.5 171.68 122.81 172.25 122.65 172.73 123.33 173.46 127.69 172.95 127.53 174.96 126.43 175.05 125.94 175.86 124.8 175.51 123.09 178.13 123.92 178.73 123.88 179.68 125 180.84 126.07 180.67 126.53 180.25 126.81 182.37 129.6 182.54 129.99 182.03 130.97 182.14 130.67 184.19 128.03 186.57 126.63 186.73 125.97 187.81 134.61 182.08 133.88 181.68 137.08 178.46 137.62 178.71 137.64 179.08 136.7 179.28 136.08 181.35 136.44 181.68 139.53 180.53 139.55 180.03 139.15 179.43 139.45 178.95 141.32 179.34 140.92 179.68 141.02 180.03 145.48 180.27 146.29 180.87 147.39 180.47 147.21 181.09 149.78 182.96 150.31 182.47 151.03 182.89 151.11 182.06 151.47 182.14 151.53 183.44 150.25 183.47 151.69 185.69 151.75 183.95 151.87 184.66 152.42 184.33 152.4 183.38 152.94 184.06 152.64 184.75 152.14 185.01 152.24 186.05 153.18 185.56 153.94 186.22 153.58 185.74 153.6 185.19 154.31 186.18 153.84 186.69 153.06 186.27 153.2 188.01 153.5 187.68 154 187.88 154.21 187.32 154.67 187.5 155.09 187.26 155.17 187.96 155.55 188.03 155.55 188.14 155.94 188.65 155.69 189.07 155.85 189.81 156.64 189.77 157.97 191.18 158.19 192.75 160.56 193.83 160.9 194.42 162.13 194.82 162.91 195.88 162.79 197.93 162.47 196.03 157.66 193.36 160.96 196.52 164.98 213.05 166.87 213.73 170.73 220.54 170 220.61 174.39 225.72 174.83 225.41 174.63 224.62 173.86 224.26 171.33 219.39 171.43 218.87 170.23 217.76 169.93 216.29 170.25 216.18 171.65 216.71 178.67 227.99 178.39 228.34 190.16 233.98 190.16 233.98 194.21 235.84 194.77 235.7 196.58 239.28 197.1 239.16 200.72 241.74 201.42 241.54 201.16 240.99 202.65 240.16 203.87 245.91 200.66 251.31 201.62 251.93 201.22 252.54 201.15 252.56 200.4 253.42 200.74 254.79 200.46 255.06 210.41 267.69 206.67 294.84 207.09 295.5 207.83 293.34 207.73 297.92 207.27 298.21 207.35 298.87 206.77 298.61 207.17 297.95 206.69 297.22 206.99 298.01 205.99 298.67 206.03 299.16 205.46 299.75 206.63 299.86 206.71 300.37 206.43 300.99 207.27 301.08 207.29 301.47 206.15 301.36 205.54 301.91 205.88 302.36 206.33 302.05 206.71 302.09 205.76 303.1 206.19 303.83 206.85 302.97 206.03 305.66 206.97 305.53 207.15 305.86 206.73 306.32 208.16 306.5 207.35 306.85 207.09 307.45 209.14 307.29 207.51 307.95 207.53 308.35 209.38 307.75 208.24 308.66 207.27 308.53 207.37 309.19 208.74 309.65 208.58 309.32 210.45 307.38 210.19 308.44 211.01 308.48 210.51 308.92 210.55 309.63 210.17 308.81 209.99 309.43 209.54 309.25 208.84 310.02 209.5 310.18 209.97 311.06 210.29 310.29 210.93 311.21 211.25 310.86 212.2 311.61 212.07 310.95 214.89 310.47 212.06 308.39 212.13 307.98 211.82 307.44 211.01 307.05 211.12 306.9 211.97 307.03 211.57 304.43 214.49 300.28 213.58 300.02 212.96 298.5 214.45 297.57 215.55 294.62 216.06 294.95 216.42 294.18 215.79 294.35 215.29 294.09 215.11 292.41 216.56 292.83 217.6 292.26 217.64 290.61 217.96 290.21 222.03 289.13 222.85 287.83 221.16 285.03 225.08 285.3 227.87 280.4 227.95 281.64 234.13 272.58 236.44 272.31 239.41 261.78 239.97 261.98 242.83 257.74 242.65 254.86 241.86 254.28 241.86 254.28" style="fill:#00CA7D"></polygon><polygon points="206.77 228.63 200.7 225.59 197.48 226.82 199.05 226.03 206.77 228.63 206.77 228.63" style="fill:#00CA7D"></polygon><polygon points="203.03 230.57 204.88 230.92 203.03 230.57 203.03 230.57" style="fill:#00CA7D"></polygon><polygon points="219.11 306.7 220.16 305.55 219.11 306.7 219.11 306.7" style="fill:#00CA7D"></polygon><polygon points="220.32 306.79 221.8 306.04 220.32 306.79 220.32 306.79" style="fill:#00CA7D"></polygon><polygon points="191.21 249.04 191.77 250.05 191.21 249.04 191.21 249.04" style="fill:#00CA7D"></polygon><polygon points="254.61 163.71 250.99 163.53 251.42 161.95 254.69 163.15 255.01 161.83 252.65 159.54 253.99 159.72 254.85 158.69 252.68 158.66 252.28 158.01 252.63 157.19 254.63 157.83 256.16 157.42 254.96 156.19 256.97 155.98 257.21 155.31 255.57 154.19 257.15 153.9 256.73 152.07 255.12 151.63 254.45 150.87 258.14 150.69 257.58 149.63 256.08 149.28 257.31 148.99 254.77 148.61 255.33 146.75 258.44 144.4 257.82 143.61 256.32 144.14 259.83 142.96 258.17 142.52 263.8 140.17 260.69 139.2 256.99 140.26 256.19 139.94 252.89 142.32 254.39 140.26 253.83 138.82 249.78 140.61 251.66 139.32 244.85 139.73 255.12 137.65 232.34 136.35 233.25 137.26 231.64 137.79 233.94 139.38 228.32 137.73 229.41 139.11 228.16 139.17 226.49 138.17 226.41 139.44 225.66 140.11 225.18 138.09 218.69 139.7 218.96 141.2 217.22 140.91 213.12 143.35 215.34 143.73 214.59 145.55 208.3 147.58 208.83 148.31 214.22 149.58 209.56 150.22 211.19 150.69 211.22 151.49 219.9 152.57 224.54 158.66 224.08 159.89 224.51 161.24 225.88 160.6 226.2 161.6 227.94 162.51 227.57 162.92 225.15 162.71 228.4 164.97 228.21 166.36 227.06 166.41 225.58 168.59 226.47 169.44 225.77 170.32 234.88 180.43 237.83 173.44 237.64 172.7 239.89 170.62 240.35 170.59 240.54 171.12 254.61 163.71 254.61 163.71" style="fill:#00CA7D"></polygon><polygon points="225.66 165.21 227.3 164.8 226.57 164.06 224.81 163.71 224.67 164.56 225.66 165.21 225.66 165.21" style="fill:#00CA7D"></polygon><polygon points="192.62 149.15 191.73 149.9 192.62 149.15 192.62 149.15" style="fill:#00CA7D"></polygon><polygon points="189.6 148.8 186.95 149.33 189.6 148.8 189.6 148.8" style="fill:#00CA7D"></polygon><polygon points="186.83 144.21 187.71 145.27 190.37 145.36 188.76 146.2 193.46 147.87 196.84 145.36 195.07 144.26 194.67 143.33 188.76 140.77 188.84 141.22 187.47 142.1 187.63 143.2 186.83 144.21 186.83 144.21" style="fill:#00CA7D"></polygon><polygon points="188.72 153.56 186.43 154.53 189.16 155.23 188.72 153.56 188.72 153.56" style="fill:#00CA7D"></polygon><polygon points="182.97 150.78 183.25 151.93 182.21 151.62 181.88 152.32 181.32 152.37 179.83 150.87 179.71 152.1 181.16 153.21 183.33 153.16 183.13 154.4 185.02 154.48 185.78 153.69 184.66 151.18 182.97 150.78 182.97 150.78" style="fill:#00CA7D"></polygon><polygon points="184.66 144.26 183.45 143.77 184.66 144.26 184.66 144.26" style="fill:#00CA7D"></polygon><polygon points="201.82 177.89 201.94 176.79 201.82 177.89 201.82 177.89" style="fill:#00CA7D"></polygon><polygon points="186.35 148.58 187.96 148.27 188.03 147.52 185.18 146.46 186.35 148.58 186.35 148.58" style="fill:#00CA7D"></polygon><polygon points="184.01 161.4 185.62 160.92 186.83 158.5 186.27 158.36 186.15 158.76 185.02 158.28 186.19 157.22 185.54 156.29 182.29 157.57 183.29 158.45 181.48 158.28 184.01 161.4 184.01 161.4" style="fill:#00CA7D"></polygon><polygon points="179.15 146.33 180.36 146.95 178.91 147.21 184.18 148.27 183.81 147.17 178.55 145.27 179.15 146.33 179.15 146.33" style="fill:#00CA7D"></polygon><polygon points="201.18 174.5 197.04 171.32 196.03 171.98 195.03 174.67 196.16 174.63 196.64 175.42 201.18 174.5 201.18 174.5" style="fill:#00CA7D"></polygon><polygon points="198.29 176.92 199.81 175.82 198.29 176.92 198.29 176.92" style="fill:#00CA7D"></polygon><polygon points="205.84 168.5 205.97 167.18 204.8 166.87 204 168.41 205.84 168.5 205.84 168.5" style="fill:#00CA7D"></polygon><polygon points="180.12 154.26 179.27 153.78 180.12 154.26 180.12 154.26" style="fill:#00CA7D"></polygon><polygon points="190.57 154.35 201.18 155.19 201.99 153.6 192.82 152.85 193.1 151.93 186.47 150.87 190.53 152.81 190.57 154.35 190.57 154.35" style="fill:#00CA7D"></polygon><polygon points="181.32 164.23 182.61 164.18 179.55 162.06 178.95 157 177.18 157.44 178.31 158.5 176.09 157.97 176.7 160.39 176.14 160.92 175.45 159.2 173.76 158.5 174.45 159.33 173.4 159.42 171.67 158.41 171.07 159.33 170.39 159.02 170.55 157.88 166.61 159.51 166.33 160.21 167.13 161.54 169.26 161.23 166.89 162.24 172.64 163.34 167.65 164.18 181.72 165.81 181.12 164.93 180.44 164.89 181.32 164.23 181.32 164.23" style="fill:#00CA7D"></polygon><polygon points="179.43 150.03 178.06 148.84 179.43 150.03 179.43 150.03" style="fill:#00CA7D"></polygon><polygon points="208.7 162.2 209.46 161.4 208.09 161.45 204 158.98 202.99 159.82 202.43 159.6 200.94 160.13 200.34 157.26 196.64 158.1 196.92 159.55 196.44 160.48 197.4 161.23 195.87 160.57 196.16 157.88 197.08 157 193.5 157.97 192.66 161.4 194.59 161.8 194.39 162.24 193.02 162.37 199.53 164.27 200.46 163.83 202.51 164.14 202.39 163.52 202.59 163.04 205.52 165.28 204.64 166.12 206.04 165.68 208.26 167.62 208.26 169.34 209.74 169.21 211.15 169.96 209.82 170.66 207.53 169.74 207.29 171.41 203.96 172.16 203.43 173.39 207.69 173.22 209.26 175.51 214.25 177.45 211.87 174.81 215.69 175.25 212.8 171.24 213.04 170.13 215.65 172.03 218.71 169.91 212.48 165.81 213.72 165.5 212.68 164.93 213.2 164.49 212.72 163.65 212.07 164 212.24 163.21 210.19 162.24 209.02 162.51 208.7 162.2 208.7 162.2" style="fill:#00CA7D"></polygon><polygon points="191.69 139.85 192.22 139.98 192.58 140.38 192.3 141.04 193.14 141.66 195.43 141.74 195.71 142.23 202.15 141.3 202.15 142.14 199.17 142.85 200.3 144.17 195.91 142.98 195.95 144.56 199.41 146.95 196.96 146.42 194.63 147.56 196.8 147.61 196.6 148.22 197.64 149.55 194.87 148.53 194.71 150.12 192.86 151.13 203.11 151.35 203.51 150.47 200.54 150.07 200.58 149.5 202.95 149.41 203.11 148.44 204.8 148.31 206.61 146.28 204.2 145.71 215.77 140.42 213.08 140.25 217.99 138.84 218.23 137.87 213.72 137.25 214.09 136.63 193.66 138.84 192.94 139.45 191.01 139.63 191.69 139.85 191.69 139.85" style="fill:#00CA7D"></polygon><polygon points="200.82 157.04 201.38 158.28 204.92 158.36 200.82 157.04 200.82 157.04" style="fill:#00CA7D"></polygon><polygon points="153.43 189.08 154.81 191.27 154.38 189.73 153.43 189.08 153.43 189.08" style="fill:#00CA7D"></polygon><polygon points="172.44 147.69 175.05 147.34 173.08 146.81 171.35 147.61 172.44 147.69 172.44 147.69" style="fill:#00CA7D"></polygon><polygon points="215.89 194.55 218.39 195.48 215.89 194.55 215.89 194.55" style="fill:#00CA7D"></polygon><polygon points="223.81 192.69 223.38 192.36 220.73 197.33 224.24 197.3 224.03 198.01 224.81 197.65 226.49 198.06 226.04 196.66 225.66 196.42 225.72 195.45 224.19 195.07 223.79 194.48 223.09 194.51 223.81 192.69 223.81 192.69" style="fill:#00CA7D"></polygon><polygon points="166.04 153.38 167.45 152.37 166.04 153.38 166.04 153.38" style="fill:#00CA7D"></polygon><polygon points="161.22 160.61 162.51 162.2 169.34 157.48 168.22 156.38 161.14 155.85 161.54 156.78 160.09 159.77 161.22 160.61 161.22 160.61" style="fill:#00CA7D"></polygon><polygon points="174.41 148.53 173.84 148.14 171.55 148.93 172.76 149.81 174.41 148.53 174.41 148.53" style="fill:#00CA7D"></polygon><polygon points="171.07 148.75 169.86 148.49 171.07 148.75 171.07 148.75" style="fill:#00CA7D"></polygon><polygon points="168.98 151.93 169.1 152.59 168.34 153.43 169.26 153.43 167.65 154 172.52 154.04 171.19 154.84 171.15 155.76 177.7 154.44 178.03 152.41 177.02 152.81 175.33 150.82 174.37 151.93 174.45 152.59 175.13 153.34 169.94 151.31 168.98 151.93 168.98 151.93" style="fill:#00CA7D"></polygon><polygon points="163.03 152.72 164.4 152.1 165.04 152.9 166.93 150.78 167.21 151.66 168.78 151.04 168.78 150.3 169.34 149.77 168.62 149.33 168.06 149.72 166.85 149.59 162.71 152.15 163.03 152.72 163.03 152.72" style="fill:#00CA7D"></polygon><polygon points="122.07 189.88 122.55 189.13 122.07 189.88 122.07 189.88" style="fill:#00CA7D"></polygon><polygon points="125.48 187.9 124.28 188.56 125.48 187.9 125.48 187.9" style="fill:#00CA7D"></polygon><polygon points="135.67 182.72 133.5 184.28 133.88 185.06 134.37 185.06 135.55 184.13 135.21 183.53 135.85 183.2 135.67 182.72 135.67 182.72" style="fill:#00CA7D"></polygon><polygon points="122.87 180.12 122.07 180.43 123.33 180.84 123.51 180.16 122.87 180.12 122.87 180.12" style="fill:#00CA7D"></polygon><polygon points="277.83 207.03 277.04 207.32 277.83 207.03 277.83 207.03" style="fill:#00CA7D"></polygon><polygon points="298.24 212.02 295.69 212.05 297.02 212.44 298.24 212.02 298.24 212.02" style="fill:#00CA7D"></polygon><polygon points="305.03 212.39 305.51 211.76 305.5 211.57 304.21 212 303.8 212.7 305.03 212.39 305.03 212.39" style="fill:#00CA7D"></polygon><polygon points="260.93 173.7 262.35 172.34 261.23 170.41 259.74 170 259.63 170.6 257.74 170.57 257.14 171.03 256.78 170.82 256.36 171.13 256.24 171.59 255.65 171.88 255.41 171.09 254.03 170.09 254.16 170.65 253.24 170.87 252.78 171.53 254.75 171.76 254.58 172.25 253.08 172.84 254.39 172.87 254.98 173.57 254.22 174.35 260.93 173.7 260.93 173.7" style="fill:#00CA7D"></polygon><polygon points="266.25 192.28 268.93 191.32 268.92 188.86 269.62 188.38 269.11 187.27 266.95 187.65 267.38 188.12 265.68 188.54 266.2 190 265.35 191.48 266.25 192.28 266.25 192.28" style="fill:#00CA7D"></polygon><polygon points="268.99 182.65 268.38 183.53 268.99 182.65 268.99 182.65" style="fill:#00CA7D"></polygon><polygon points="273.57 180.34 273.72 179.24 273.57 180.34 273.57 180.34" style="fill:#00CA7D"></polygon><polygon points="268.76 183.97 269.41 184.56 269.08 185.3 269.56 185.82 268.81 186.44 269.45 186.19 269.83 186.79 270.35 186.02 270.1 187.71 271.4 187.57 271.95 189.75 270.74 189.95 270.47 190.57 271.01 190.95 270.14 191.63 270.49 192.04 271.97 192.32 272.06 192.57 271.05 192.72 269.9 194.28 270.57 193.86 271.24 194.01 271.64 193.57 276.01 192.66 275.62 192.45 276.44 190.91 275.04 190.34 273.45 186.84 272.03 186.19 273.05 183.81 271.37 183.72 271.06 183.4 271.88 181.99 271.48 182.39 270.5 182.4 269.31 184.19 268.76 183.97 268.76 183.97" style="fill:#00CA7D"></polygon><polygon points="285.19 187.6 285.43 188.04 286.3 186.15 285.99 186.38 285.68 186.15 285.09 186.43 285.44 187.34 285.19 187.6 285.19 187.6" style="fill:#00CA7D"></polygon><polygon points="291.69 183.44 291.07 184.74 291.69 183.44 291.69 183.44" style="fill:#00CA7D"></polygon><polygon points="294.53 183.15 295.46 182.47 294.89 182.28 294.53 183.15 294.53 183.15" style="fill:#00CA7D"></polygon><polygon points="295.29 181.86 294.71 181.93 295.29 181.86 295.29 181.86" style="fill:#00CA7D"></polygon><polygon points="285.78 145.4 285.26 146.37 286.17 147.47 287.45 147.56 288.42 146.35 288.5 146.95 289.28 146.86 289.64 147.19 287.13 148.27 289.76 148.53 287.27 149.33 288.18 150.12 289.06 150.23 288.62 150.6 289.36 151.09 289.96 150.89 292.09 147.06 293.18 146.7 293.82 148.03 293.66 148.97 294.53 149.17 295.03 149.68 296.96 148.51 295.57 148.14 295.41 147.74 294.2 146.9 294.02 146.33 291.71 145.47 291.35 144.7 290.61 145.05 290.85 144.34 289.42 143.53 289.08 144.48 289.64 145.98 288.01 144.21 287.41 145.18 286.73 144.59 287.49 144.28 284.84 144.5 284.84 145.49 285.78 145.4 285.78 145.4" style="fill:#00CA7D"></polygon><polygon points="284.96 147.19 285.6 147.67 284.4 146.31 284.96 147.19 284.96 147.19" style="fill:#00CA7D"></polygon><polygon points="291.35 143.62 291.25 143.99 294.55 144.1 292.66 144.81 295.87 145.51 299.31 143.55 296.18 143.04 295.67 143.31 295.15 142.67 294.99 143.64 292.54 142.54 292.6 142.98 291.93 142.78 291.95 143.33 291.27 142.8 290.89 143.18 291.35 143.62 291.35 143.62" style="fill:#00CA7D"></polygon><polygon points="446.34 175.11 445.21 175.5 448 175.73 446.34 175.11 446.34 175.11" style="fill:#00CA7D"></polygon><polygon points="402.12 202.8 401.37 203.15 400.86 205.09 401.8 204.76 401.26 204.03 403.38 204.29 406.75 201.68 405.01 202.18 403.03 200.59 402.44 200.89 402.12 202.8 402.12 202.8" style="fill:#00CA7D"></polygon><polygon points="396.6 211.97 394.16 212.2 392.76 213.35 392.76 213.94 396.03 213.05 396.41 213.94 397.48 213.88 397.8 213.2 399.89 213.02 400.43 212.44 401.29 212.29 402.14 205.62 400.99 205.97 398.98 210.29 398.39 209.97 397.16 211.76 396.6 211.97 396.6 211.97" style="fill:#00CA7D"></polygon><polygon points="394.61 214.93 395.39 214.61 396.01 213.73 394.24 213.88 394.1 215.2 394.61 214.93 394.61 214.93" style="fill:#00CA7D"></polygon><polygon points="391.42 215.17 391.93 214.88 392.42 217.08 393.43 215.4 393.25 214.76 392.63 214.26 391.8 214.46 391.42 215.17 391.42 215.17" style="fill:#00CA7D"></polygon><polygon points="383.2 226.66 384.32 223.57 382.71 224.96 383.2 226.66 383.2 226.66" style="fill:#00CA7D"></polygon><polygon points="373.79 230.22 374.27 229.04 373.15 228.95 372.26 230.3 373.79 230.22 373.79 230.22" style="fill:#00CA7D"></polygon><polygon points="382.37 232.8 382.85 234.92 385.69 236.42 386.79 238.97 387.49 238.12 387.24 236.91 385.61 235.24 384.35 235 383.89 234.09 384.46 231.07 384.3 230.72 382.98 230.6 382.79 232.92 382.37 232.8 382.37 232.8" style="fill:#00CA7D"></polygon><polygon points="384.32 237.3 384.38 238.65 384.86 238.35 385.07 240.24 386.04 238.65 384.32 237.3 384.32 237.3" style="fill:#00CA7D"></polygon><polygon points="387.54 239.82 386.49 240.79 385.69 240.59 384.64 241.26 384.3 242.29 385.77 241.56 386.52 243.26 387.46 243.79 387.43 242.53 388.4 242.09 388.18 239.88 387.54 239.82 387.54 239.82" style="fill:#00CA7D"></polygon><polygon points="381.21 239.21 380.06 240.85 381.94 238.12 381.21 239.21 381.21 239.21" style="fill:#00CA7D"></polygon><polygon points="386.65 239.32 385.98 239.79 386.65 239.32 386.65 239.32" style="fill:#00CA7D"></polygon><polygon points="382.88 235.8 383.73 236.86 382.88 235.8 382.88 235.8" style="fill:#00CA7D"></polygon><polygon points="411.39 254.19 408.36 254.99 409.84 255.72 411.71 254.69 411.98 253.81 411.39 254.19 411.39 254.19" style="fill:#00CA7D"></polygon><polygon points="407.45 256.13 407.64 255.49 398.5 250.84 396.22 252.67 395.26 250.2 393.19 249.91 392.42 250.55 393.41 251.49 394.85 251.58 394.77 251.87 393.46 252.17 394.02 253.05 398.93 254.78 399.41 256.81 398.55 257.6 400.64 257.49 402.57 258.66 404.21 257.25 410 260.04 407.45 256.13 407.45 256.13" style="fill:#00CA7D"></polygon><polygon points="412.6 254.08 412.3 253.08 412.03 253.14 412.6 254.08 412.6 254.08" style="fill:#00CA7D"></polygon><polygon points="347.31 239.53 347.39 243.26 348.79 241.85 347.31 239.53 347.31 239.53" style="fill:#00CA7D"></polygon><polygon points="318.82 261.22 318.5 261.51 318.37 262.22 317.37 263.1 317.35 263.63 314.26 265.19 314.02 274.59 315.63 275.03 316.57 274.65 319.28 264.86 319.81 264.75 318.82 261.22 318.82 261.22" style="fill:#00CA7D"></polygon><polygon points="322.75 236.67 323.68 236.48 322.75 236.67 322.75 236.67" style="fill:#00CA7D"></polygon><polygon points="418.75 258.85 419.67 259.4 418.75 258.85 418.75 258.85" style="fill:#00CA7D"></polygon><polygon points="419.69 257.85 420.42 259.2 419.69 257.85 419.69 257.85" style="fill:#00CA7D"></polygon><polygon points="420.39 259.81 421.22 260.26 420.39 259.81 420.39 259.81" style="fill:#00CA7D"></polygon><polygon points="415.89 256.13 416.66 256.82 415.89 256.13 415.89 256.13" style="fill:#00CA7D"></polygon><polygon points="414.18 254.9 415.3 256.34 414.18 254.9 414.18 254.9" style="fill:#00CA7D"></polygon><polygon points="418.91 257.9 417.64 257.15 418.91 257.9 418.91 257.9" style="fill:#00CA7D"></polygon><polygon points="406.44 293.14 404.9 292.66 406.53 296.18 407.23 295.28 407.75 295.39 407.97 292.79 406.44 293.14 406.44 293.14" style="fill:#00CA7D"></polygon><polygon points="412.98 278.18 410.06 272.25 409.54 272.29 408.68 270.15 406.59 268.81 404.88 263.87 404.17 263.89 403.03 260.1 400.98 267.18 396.66 264.38 397.7 261.93 397.5 261.45 397.16 261.84 396.82 261.31 396.13 261.62 393.52 260.45 393.86 261.12 392.21 261.87 391.21 263.5 391.25 264.33 390.2 264.49 388.64 263.19 387.83 263.98 387.13 264 386.37 265.75 385.7 265.68 385.84 266.43 385.56 266.93 385.2 266.19 384.5 266.58 384.46 267.75 377.12 272.07 377.02 271.45 376.96 276.21 376.42 275.71 376.68 276.41 376.03 275.88 378.32 283.6 377.8 284.41 378.71 285.71 392.52 281.97 395.21 283 395.27 283.62 396.07 284.46 396.3 285.56 398.71 283.64 397.76 285.82 399.11 285.45 398.99 286.55 399.65 286.51 400.9 289.15 403.65 290.3 404.8 289.57 405.18 289.73 405.34 290.03 405.58 289.83 406.49 290.67 407.75 289.44 409.64 289.06 412.98 278.18 412.98 278.18" style="fill:#00CA7D"></polygon><polygon points="397.36 287.01 398.45 286.86 397.36 287.01 397.36 287.01" style="fill:#00CA7D"></polygon><polygon points="391.67 261.23 392.84 260.92 391.67 261.23 391.67 261.23" style="fill:#00CA7D"></polygon><polygon points="425.9 300.55 426.24 300.11 425.9 300.55 425.9 300.55" style="fill:#00CA7D"></polygon><polygon points="431.71 292.94 430.99 293.19 430.1 292.79 425.02 299.11 426.49 299.8 428.15 299.38 431.83 293.76 431.71 292.94 431.71 292.94" style="fill:#00CA7D"></polygon><polygon points="434.99 289.39 434.1 289.31 433.16 287.92 433.14 288.47 430.97 285.78 432.42 288.34 432.27 289.81 431.53 290.72 432.74 291.91 432.48 293.49 433.3 293.63 434.59 291.05 435.19 290.83 435.87 289.35 434.99 289.39 434.99 289.39" style="fill:#00CA7D"></polygon><polygon points="436.17 266.6 437.12 266.05 436.17 266.6 436.17 266.6" style="fill:#00CA7D"></polygon><polygon points="434.93 267.77 435.97 267.46 434.93 267.77 434.93 267.77" style="fill:#00CA7D"></polygon><polygon points="359.83 144.23 359.21 145.11 363.34 146.58 364.36 144.73 362.35 143.64 359.83 144.23 359.83 144.23" style="fill:#00CA7D"></polygon><polygon points="324.26 157.07 324.02 157.63 322.57 158.57 322.87 159.24 321.21 160.48 322.12 161.07 322.28 161.8 322.63 161.48 324.5 162.74 326.86 162.74 325.63 161.54 325.31 159.39 337.31 150.78 326.14 153.96 325.15 155.92 324.37 156.37 324.26 157.07 324.26 157.07" style="fill:#00CA7D"></polygon><polygon points="363.98 148.37 369.5 146.96 368.32 146.11 367.01 146.4 367.12 145.87 366.58 145.23 365.62 145.61 363.98 148.37 363.98 148.37" style="fill:#00CA7D"></polygon><polygon points="317.13 142.47 318.66 142.14 315.66 142.41 317.13 142.47 317.13 142.47" style="fill:#00CA7D"></polygon><polygon points="357.71 141.32 356.5 141.5 357.71 141.32 357.71 141.32" style="fill:#00CA7D"></polygon><polygon points="358.41 143.41 357.55 144.14 358.35 144.73 361.92 143.2 362.16 142.38 361.11 140.88 358.78 142.05 358.38 142.73 358.41 143.41 358.41 143.41" style="fill:#00CA7D"></polygon><polygon points="318.5 165.94 320.19 165.56 319.38 164.92 318.5 165.94 318.5 165.94" style="fill:#00CA7D"></polygon><polygon points="347.12 158.54 346.43 158.86 347.12 158.54 347.12 158.54" style="fill:#00CA7D"></polygon><polygon points="318.42 142.7 317.56 143.23 320.86 142.41 320.91 141.7 318.42 142.7 318.42 142.7" style="fill:#00CA7D"></polygon><polygon points="323.43 143.17 322.31 143.32 323.43 143.17 323.43 143.17" style="fill:#00CA7D"></polygon><polygon points="324.05 142.08 327.21 141.76 325.01 141.47 324.05 142.08 324.05 142.08" style="fill:#00CA7D"></polygon><polygon points="333.43 142.08 333.88 141.23 331.93 141.99 333.43 142.08 333.43 142.08" style="fill:#00CA7D"></polygon><polygon points="331.47 142.23 331.07 141.7 329.6 141.67 328.9 142.58 331.47 142.23 331.47 142.23" style="fill:#00CA7D"></polygon><polygon points="375.56 155.72 375.02 156.19 376.66 155.89 375.56 155.72 375.56 155.72" style="fill:#00CA7D"></polygon><polygon points="402.92 192.92 402.68 199.53 403.27 198.89 404.05 199.62 403.54 195.95 404.9 195.66 403.24 188.84 402.92 192.92 402.92 192.92" style="fill:#00CA7D"></polygon><polygon points="408.87 155.22 411.04 154.75 407.29 153.72 406.67 154.4 408.87 155.22 408.87 155.22" style="fill:#00CA7D"></polygon><polygon points="404.15 158.19 402.98 156.95 401.47 157.72 404.15 158.19 404.15 158.19" style="fill:#00CA7D"></polygon><polygon points="326.89 142.79 325.68 143.64 328.63 143.05 326.89 142.79 326.89 142.79" style="fill:#00CA7D"></polygon><polygon points="398.55 154.43 399.28 155.07 403.08 154.84 403 153.69 404.66 154.78 405.31 153.93 405.06 153.07 400.08 152.1 398.55 154.43 398.55 154.43" style="fill:#00CA7D"></polygon><polygon points="338.6 158.42 339.99 158.07 339 157.63 338.6 158.42 338.6 158.42" style="fill:#00CA7D"></polygon><polygon points="326.75 141.2 328.42 140.55 325.57 140.85 326.75 141.2 326.75 141.2" style="fill:#00CA7D"></polygon><polygon points="437.87 162.59 439.77 162.36 438.78 161.51 436.58 162.62 437.87 162.59 437.87 162.59" style="fill:#00CA7D"></polygon><polygon points="444.81 171.84 445.83 172.07 445.62 171.79 446.31 171.76 446.89 170.96 442.71 169.34 443.12 169.79 442.99 170.43 442.41 170.15 442.02 168.6 429.08 164.02 428.78 164.65 429.23 165.44 429 166.41 426.87 165.27 427.97 164.73 426.83 164.21 425.76 165.14 420.76 165.03 420.57 165.96 420.33 165 419.15 164.52 419.31 163.89 417.84 162.48 412.29 162.62 412.05 162.14 409.42 161.2 409.33 160.88 410.06 160.49 407.14 159.97 406.61 160.94 405.64 160.85 406.35 160.36 405.33 160.02 406.75 159.76 402 158.79 401.8 159.24 400.16 160.17 400.88 160.19 400.64 160.71 400.93 161.39 399.33 161.33 399.08 161.55 399.08 161.95 396.96 161.21 395.91 161.6 394.04 160.98 392.96 162.77 390.22 160.23 391.24 160.32 390.66 158.2 386.67 156.75 385.78 157.75 385.77 158.5 381.25 158.14 381.63 157.67 376.86 157.54 376.74 158.07 376.59 157.1 374.15 156.54 373.13 157.19 373.68 157.35 369.7 158.73 369.93 158.04 376.93 153.76 376.52 153.43 376.98 153.25 376.67 152.31 376.08 152.19 375.89 151.38 370.39 151.53 371.04 150.6 368.48 150.31 369.6 149.84 369.7 149.46 367.99 148.99 365.17 150.96 365.35 151.38 363.46 151.77 364.05 152.26 361.39 152.49 361.65 151.93 358.73 152.49 359.28 152.9 353.41 154.87 353.65 155.22 352.87 155.18 353.77 155.82 353.09 155.87 353.77 156.53 353.68 156.95 348.45 157.45 348.15 159.14 349.91 160.83 345.64 159.33 345.06 159.83 345.93 160.3 344.2 160.67 346.23 162.2 346.09 162.49 343.5 161.76 343.28 158.89 341.36 161.57 342.39 162.93 341.9 165.61 345.39 166.14 345.73 166.9 345.31 167.63 346.36 168.4 345.34 168.31 344.93 167.68 345.15 166.96 344.12 165.92 342.73 166.33 342.92 167.71 340.65 170.34 338.79 170.43 337.62 169.75 339.15 170.06 341.6 166.96 341.63 166.59 340.92 165.74 341.11 162.74 340.37 161.61 341.05 159.17 338.2 158.67 335.5 162.52 336.01 162.65 335.55 164.59 336.62 165.03 337.01 165.84 337.56 166.15 336.99 167.13 328.13 163.36 328.39 164.18 329.64 164.93 330.05 165.75 329.77 166.3 328.68 166.84 328.68 166.25 328.13 165.8 323.15 167.13 323.79 165.9 322.56 166.3 322.39 166.86 321.98 166.59 318.04 168.19 317.84 169.24 316.3 169.46 315.58 168.71 315.55 168.08 316.99 167.77 316.44 166.81 314.16 166.33 314.59 167.4 314.24 168.5 314.87 169.74 314.59 170.5 314.2 170.49 313.93 170.19 313.02 170 310.77 171.38 311.2 173.03 308.14 172.04 307.59 172.6 307.86 173.17 308.75 173.51 308.82 174.12 307.43 174 306.13 172.91 306.01 170.91 303.56 168.78 309.24 170.59 311.87 169.32 311.79 168.15 303.85 164.65 304.52 164.42 302.73 164.26 302.67 164.21 301.59 164.2 301 163.7 302.67 163.27 301.04 162.27 300.11 162.89 300.22 162.33 299.85 161.77 298.75 163.11 298.76 162.27 297.31 163.55 298.06 162.15 297.96 161.77 297.46 162.21 296.82 162.13 296.46 162.65 295.83 162.89 295.52 163.84 295.18 163.2 295.85 162.3 294.8 162.55 294.85 163.21 294.59 163.42 293.91 163.43 294.42 163.93 293.51 163.55 293.21 163.74 293.43 164.39 292.61 164.14 292.54 163.56 291.91 163.62 291.66 163.9 291.58 164.36 290.35 164.73 289.88 165.4 290.45 165.36 290.57 165.71 290.49 165.97 290.02 166.03 289.62 165.77 289.13 166.03 289.34 165.21 286.73 167.37 289.69 166.55 289.61 167.08 289.36 167.24 288.99 167.05 286.89 170.47 286.18 170.6 286.06 172.19 284.87 172.5 285.38 173.12 283.28 174.98 282.79 174.56 282.68 175.11 281.31 175.81 281.8 176.2 281.02 176.22 279.37 177.57 279.72 178.07 279.45 179.88 279.92 180.04 280.56 179.77 280.73 180.08 280.25 180.49 279.89 180.39 279.58 180.68 279.52 181.27 280.51 181.26 279.91 181.96 281.92 183.09 284.24 181.58 284.46 180.86 286.68 186.91 287.38 186.9 288 185.99 288.75 185.91 289.27 185.46 289.6 185.6 290.1 184.66 289.78 184.72 289.92 182.62 291.78 180.37 290.92 179.33 290.28 179.14 291.18 175.83 294.06 173.37 294.31 171.6 294.9 171.09 297.07 171.34 297.39 172.1 293.76 175.86 293.8 179.27 295.2 179.96 299.81 179.39 300.25 178.79 299.82 179.39 300.19 179.24 300.77 179.89 301.56 180.08 296.21 181.2 295.67 181.77 295.85 182.4 296.39 182.74 296.48 184.14 295.75 184.52 294.94 183.49 294.07 183.93 293.55 187.07 293.7 187.22 293.4 187.76 292.36 187.81 292.3 188.04 291.81 188.32 291.38 187.71 287.73 189.08 287.12 188.63 287.2 188.06 285.38 188.94 283.5 187.27 284.61 187.35 284.29 186.74 283.87 186.68 284.13 186.06 284.7 185.72 284.28 185.25 284.34 183.71 283.15 184.41 283.19 184.85 282.67 184.56 282.21 185.28 283.1 189.04 282.71 189.44 281.36 189.46 281.33 189.66 280.19 189.79 277.08 192.86 276.88 192.88 274.8 195.13 273.66 194.7 273.14 195.08 273.26 196.14 271.04 195.91 270.47 196.38 270.58 196.99 272.58 197.65 273.58 198.95 273.26 202.71 267.55 202.19 266.8 202.71 266.69 210.01 268.6 210.09 269.7 211.23 269.91 210.91 273.07 210.13 274.79 208.13 274.8 206.68 277.75 203.82 277.7 203.56 278.45 202.58 280.11 202.97 282.79 201.46 288.74 206.57 289.11 209.03 290.09 207.62 289.68 206.84 291.23 206.46 286.08 201.46 286.1 200.46 286.5 199.9 287.08 199.81 293.28 208.04 294.74 208.6 293.78 208.69 294.43 210.22 295.28 210.66 295.12 209.66 295.75 209.63 295.33 209.23 296.31 208.95 296.01 208.15 295.26 208.17 295.56 207.65 294.82 206.53 295.29 206.25 296.01 206.37 296.19 205.62 296.74 205.81 297.42 205.44 298.56 206.04 300.62 205.34 299.4 203.24 301.24 200.3 301.24 200.25 302.45 198.51 303.45 198.34 303.54 198.99 305.02 199.23 303.81 199.96 304.72 200.42 304.76 201.18 307.58 200.39 305.93 199.31 309.88 197.89 308.76 198.61 309.11 199.17 307.83 200.4 311.87 203.43 312.21 204.46 312.01 204.8 300.79 205.32 300.33 206.09 298.43 206.26 298.24 207 298.61 207.28 298.72 209.25 300.79 210.94 302.69 210.33 303.92 211.13 307.1 210.35 306.12 214.34 306.59 214.56 306.12 214.34 305.15 216.73 297.11 215.97 297.09 215.93 294.49 214.8 292.46 215.93 292.58 217.23 283.9 213.6 284.61 212.91 284.68 210.35 269.47 211.61 259.29 227.4 259.61 235.94 267.57 244.53 278.98 242.81 280.32 244.67 282.6 244.3 282.98 244.85 283.67 245.01 283.55 248.2 283.39 248.41 283.74 248.91 282.88 249.95 291.14 284.6 291.99 285.27 299.94 282.72 303.87 276.1 303.5 275.72 306.06 273.8 305.7 269.09 311.04 263.98 309.33 255.3 320.63 237.47 320.04 237.14 313.88 238.21 313.41 237.64 313.26 237.83 313.41 237.64 312.93 237.41 313.45 236.96 303.65 217.77 305.17 220.36 305.72 218.94 313.56 236.15 324.24 231.92 324.58 231.14 325.57 230.96 328.54 226.67 327.71 225.09 326.19 224.47 325.45 222.18 321.58 224.71 321.39 224.65 320.93 222.46 320.32 223.43 320.26 223.44 317.9 218.44 317.98 218.28 319.64 217.86 321.09 220.33 324.25 221.79 325.71 221.35 326.41 222.66 335.09 223.37 337.46 225.91 338.45 225.97 337.19 226.44 339.12 228.16 340.36 226.62 344.64 241.1 353.13 227.66 356.85 225.98 359.36 230.83 359.22 232.43 359.6 232.98 360.48 232.86 361.25 231.86 368.01 247.95 363.61 239.77 364.21 236.15 364.97 235.9 366.68 237.09 366.93 237.99 367.49 238.09 367.53 238.62 368.25 238.69 368.74 239.18 368.48 240.04 368.94 240.44 372.72 236.77 369.56 229.44 371.33 227.4 372.9 227.26 373.35 228.54 382.14 223.03 382.14 221.78 384.5 218.37 383.28 217.84 384.23 217.33 382.88 216.14 384.19 216.28 381.88 212.92 384.82 210.44 383.41 209.41 382.2 210.28 381.64 209.48 380.7 209.13 380.69 207.9 384.42 206.06 383.67 208.17 386.41 207.07 387.44 207.63 386.91 208.7 387.07 209.31 387.52 209.56 388.22 209.41 388.72 210.07 388.46 213.27 391.45 211.82 389.47 207.88 392.86 203.48 392.86 203.48 393.61 203.03 394.65 203.68 402.17 190.43 400.58 188.85 399.8 188.88 399.24 189.6 398.73 189.65 398.66 188.66 398.1 189.37 397.99 188.35 396.96 188.32 397 187.59 404.26 181.42 411.75 181.62 411.3 182.27 414.74 181.68 414.38 181.37 414.31 180.53 416.79 177.91 419.54 177.76 419.1 178.68 419.61 179.07 419.36 179.48 421.96 178.17 422.15 177.2 423.7 176.6 416.39 183.8 416.27 193.36 417.68 191.89 417.88 190.88 419.16 190.28 419.08 189.44 419.95 188.53 421.04 188.32 420.88 187.34 421.52 186.13 422.22 186.09 421.79 185.43 421.95 183.78 421.37 183.83 421.27 182.8 422.71 180.67 423.85 180.8 424.76 179.84 424.95 180.71 428.06 179.99 428.73 180.62 434.89 176.69 437.05 176.73 435.07 173.34 434.31 173.16 435.2 172.88 435.69 173.37 437.92 172.62 438.08 171.03 438.42 170.71 438.9 170.68 438.78 171.21 439.1 171.88 444.53 173.85 444.13 173.31 444.57 173.42 444.53 171.96 444.81 171.84 444.81 171.84" style="fill:#00CA7D"></polygon><polygon points="402.01 156.25 401.15 156.63 402.01 156.25 402.01 156.25" style="fill:#00CA7D"></polygon><polygon points="422.78 270.16 425.41 272.16 422.78 270.16 422.78 270.16" style="fill:#00CA7D"></polygon><polygon points="203.46 223.45 203.13 223.74 203.8 224.81 203.46 223.45 203.46 223.45" style="fill:#00CA7D"></polygon><polygon points="218.28 239.03 218.97 238.94 218.92 238.36 218.26 238.56 218.28 239.03 218.28 239.03" style="fill:#00CA7D"></polygon><polygon points="389.9 247.94 389.28 247.55 389.76 249.73 390.43 248.2 389.9 247.94 389.9 247.94" style="fill:#00CA7D"></polygon><polygon points="369.63 253.64 369.77 252.61 370.14 252.37 370.17 251.76 369.42 250.96 369.31 251.4 369.66 251.87 360.09 243.7 368.35 255.08 369.31 255.11 369.63 253.64 369.63 253.64" style="fill:#00CA7D"></polygon><polygon points="389.76 252.55 392.15 253.2 391.53 252.2 389.76 252.55 389.76 252.55" style="fill:#00CA7D"></polygon><polygon points="371.73 252.17 371.24 252.4 371.73 252.17 371.73 252.17" style="fill:#00CA7D"></polygon><polygon points="372.24 248.64 375.08 252.73 376.28 252.58 377.44 253.17 378.75 252.93 379.98 249.2 381.35 248.35 380.19 245.14 381.72 244.09 379.47 242.5 377.62 244.67 376.98 244.56 376.18 245.94 374.86 246.38 374.27 247.64 372.82 247.26 372.24 248.64 372.24 248.64" style="fill:#00CA7D"></polygon><polygon points="361.65 247.85 362.21 248.64 361.65 247.85 361.65 247.85" style="fill:#00CA7D"></polygon><polygon points="362.96 250.38 363.39 250.93 362.96 250.38 362.96 250.38" style="fill:#00CA7D"></polygon><polygon points="377.25 257.84 378.32 257.87 375.83 256.99 376.74 256.31 369.74 255.46 369.31 256.05 369.98 256.19 370.47 256.75 377.25 257.84 377.25 257.84" style="fill:#00CA7D"></polygon><polygon points="387.91 252.61 389.01 252.93 387.91 252.61 387.91 252.61" style="fill:#00CA7D"></polygon><polygon points="385.74 259.66 389.09 257.66 386.17 258.54 385.74 259.66 385.74 259.66" style="fill:#00CA7D"></polygon><polygon points="381.32 251.87 382.26 255.08 382.61 252.28 383.65 253.7 384.48 253.81 384.05 251.08 385.42 249.99 383.57 250.58 382.45 249.61 387.03 247.85 382.69 248.49 381.32 251.87 381.32 251.87" style="fill:#00CA7D"></polygon><polygon points="383.12 259.46 381.45 258.96 383.12 259.46 383.12 259.46" style="fill:#00CA7D"></polygon><polygon points="380.11 257.52 379.28 257.63 378.86 258.16 381.45 257.99 380.11 257.52 380.11 257.52" style="fill:#00CA7D"></polygon><polygon points="385.5 257.87 385.8 257.57 382.18 258.02 385.5 257.87 385.5 257.87" style="fill:#00CA7D"></polygon><polygon points="288.06 208.87 286.19 209.26 288.16 210.53 288.78 208.92 288.06 208.87 288.06 208.87" style="fill:#00CA7D"></polygon><polygon points="282.21 205.71 282.92 207.94 283.55 207.51 283.7 205.9 282.87 205.53 282.21 205.71 282.21 205.71" style="fill:#00CA7D"></polygon><g style="opacity:0.7000000000000001"><polygon points="283.19 204.94 283.38 203.09 282.81 203.62 283.19 204.94 283.19 204.94" style="fill:#fff"></polygon><polygon points="207.77 230.79 212.12 230.17 207.77 228.76 208.38 230.13 206.61 230.48 207.77 230.79 207.77 230.79" style="fill:#fff"></polygon><polygon points="241.86 254.28 235.25 251.64 234.06 252.28 234.25 251.33 232.12 249.92 229.68 250.87 230.47 249.72 228.64 249.19 228.06 249.96 229.2 247.91 226.25 243.62 222.64 243.14 220.1 240.66 218.79 240.51 219.03 239.69 217.68 239.14 217.8 238.59 217.04 238.35 215.29 239.03 210.93 236.94 210.67 237.58 209.44 238.35 209.74 239.8 208.78 239.45 209.5 236.65 206.45 237.91 204.38 240.86 204.18 240.91 202.35 239.47 199.61 239.96 198.13 238.06 198.67 233.95 197.66 233.17 194.03 233.25 193.66 233.01 194.19 230.85 194.39 230.73 194.39 230.73 195.45 227.44 193.24 227.28 191.21 230.24 188.4 230.63 185.88 227.79 185.93 222.66 185.55 222.5 185.93 222.66 185.88 220.43 188.98 218.18 192 218.91 192.4 218.56 193.2 219.17 192.82 218.12 194.25 217.52 194.61 217.78 195.81 217.63 197.28 218.4 198.13 218.09 200.42 223.21 201.1 223.34 201.5 222.17 200.24 217.28 204.66 211.94 205.28 211.99 205.5 211.39 204.3 209.06 204.66 208.7 204.8 207.4 205.1 207.4 205.26 209.56 205.66 209.28 205.84 207.56 206.49 207.51 206.97 206.28 208.8 205.6 207.41 205.55 210.09 204.69 209.97 203.41 211.73 201.25 212.86 201.3 215.55 199.47 215.61 199.89 216.44 200.24 214.59 201.1 214.49 202.2 218.63 200.53 218.81 200.02 220.01 199.53 219.67 199.14 219.65 198.46 218.19 199.84 215.59 198.65 215.47 197.64 215.07 197.31 214.99 196.91 215.87 195.63 211.96 196.34 209.99 198.19 223.67 191.56 223.33 190.85 223.87 190.26 223.39 189.48 222.43 189.62 222.37 188.82 220.09 189.62 219.87 189.22 222.23 188.23 217.82 185.45 217.92 185.19 218.65 184.75 215.81 179.72 214.69 181.88 212.92 182.92 211.07 180.95 211.27 178.99 203.65 176.55 203.27 177.27 203.85 177.96 203.35 178.9 204 180.36 203.07 182.47 204.44 183.66 204.64 185.85 202.09 187.74 202.77 192.24 202.37 192.19 201.86 192.81 201.1 192.5 199.51 190.26 199.55 187.94 191.51 184.31 190.17 184.75 189.22 182.14 188.22 181.88 189.8 177.01 191.87 175.29 189.14 174.06 192.28 174.63 192.5 173.77 193.84 174.01 195.13 172.56 192.86 171.5 192.92 170.95 194.73 171.92 196.09 170.84 195.57 170.26 196.28 169.93 196.86 170.4 197.82 170.29 197.32 169.58 197.48 169.32 198.1 169.91 198.89 169.93 200.24 168.88 199.51 166.67 200.42 166.32 199.87 165.28 196.74 164.31 197.1 165.75 195.91 167.62 195.51 167 195.39 167.77 195.73 168.39 195.09 168.88 193.99 167.4 194.37 166.96 194.35 166.3 193.74 165.61 192.9 165.39 192.16 166.89 191.97 165.28 192.2 164.89 191.29 164.49 190.61 164.69 190.65 163.83 191.17 163.63 189.8 162.46 189.84 161.58 188.46 160.26 189.12 159.73 189.32 158.76 190.73 158.89 192.03 156.93 187.71 156.47 187.96 157.06 187.37 157 187.87 160.39 187.31 160.96 187.59 161.56 186.85 161.47 186.89 164.16 188.72 164.87 188.42 166.16 188.86 165.81 189.26 166.36 187.75 167.35 187.75 168.32 187.27 168.7 186.79 167.88 186.91 167.11 185.86 166.78 188.06 166.19 187.55 165.33 186.83 165.26 187.57 165.11 186.03 164.51 184.06 165.46 185.54 166.54 184.76 167.07 184.7 167.71 179.69 167.31 178.43 166.08 175.61 166.78 176.01 167.2 178.06 166.52 176.58 167.38 176.46 169.49 175.9 169.23 175.79 168.41 169.58 167.8 170.61 167.03 170.27 166.28 161.28 165.13 161.02 163.72 159.79 165.13 158.43 163.15 153.14 166.28 153.36 165.72 156.54 163.87 152.68 165.09 152 164.71 150.75 165.7 151.11 166.28 135.67 163.1 135.39 162.59 133.82 162.62 133.38 162.22 132.22 162.49 132.58 162.04 131.85 161.67 128.64 162.93 128.84 163.45 126.85 163.63 125.4 165.66 123.11 166.16 122.87 166.78 125.36 169.21 126.89 169.25 127.19 170.11 128.16 170.33 125.14 170.86 125.14 170.18 121.5 171.68 122.81 172.25 122.65 172.73 123.33 173.46 127.69 172.95 127.53 174.96 126.43 175.05 125.94 175.86 124.8 175.51 123.09 178.13 123.92 178.73 123.88 179.68 125 180.84 126.07 180.67 126.53 180.25 126.81 182.37 129.6 182.54 129.99 182.03 130.97 182.14 130.67 184.19 128.03 186.57 126.63 186.73 125.97 187.81 134.61 182.08 133.88 181.68 137.08 178.46 137.62 178.71 137.64 179.08 136.7 179.28 136.08 181.35 136.44 181.68 139.53 180.53 139.55 180.03 139.15 179.43 139.45 178.95 141.32 179.34 140.92 179.68 141.02 180.03 145.48 180.27 146.29 180.87 147.39 180.47 147.21 181.09 149.78 182.96 150.31 182.47 151.03 182.89 151.11 182.06 151.47 182.14 151.53 183.44 150.25 183.47 151.69 185.69 151.75 183.95 151.87 184.66 152.42 184.33 152.4 183.38 152.94 184.06 152.64 184.75 152.14 185.01 152.24 186.05 153.18 185.56 153.94 186.22 153.58 185.74 153.6 185.19 154.31 186.18 153.84 186.69 153.06 186.27 153.2 188.01 153.5 187.68 154 187.88 154.21 187.32 154.67 187.5 155.09 187.26 155.17 187.96 155.55 188.03 155.55 188.14 155.94 188.65 155.69 189.07 155.85 189.81 156.64 189.77 157.97 191.18 158.19 192.75 160.56 193.83 160.9 194.42 162.13 194.82 162.91 195.88 162.79 197.93 162.47 196.03 157.66 193.36 160.96 196.52 164.98 213.05 166.87 213.73 170.73 220.54 170 220.61 174.39 225.72 174.83 225.41 174.63 224.62 173.86 224.26 171.33 219.39 171.43 218.87 170.23 217.76 169.93 216.29 170.25 216.18 171.65 216.71 178.67 227.99 178.39 228.34 190.16 233.98 190.16 233.98 194.21 235.84 194.77 235.7 196.58 239.28 197.1 239.16 200.72 241.74 201.42 241.54 201.16 240.99 202.65 240.16 203.87 245.91 200.66 251.31 201.62 251.93 201.22 252.54 201.15 252.56 200.4 253.42 200.74 254.79 200.46 255.06 210.41 267.69 206.67 294.84 207.09 295.5 207.83 293.34 207.73 297.92 207.27 298.21 207.35 298.87 206.77 298.61 207.17 297.95 206.69 297.22 206.99 298.01 205.99 298.67 206.03 299.16 205.46 299.75 206.63 299.86 206.71 300.37 206.43 300.99 207.27 301.08 207.29 301.47 206.15 301.36 205.54 301.91 205.88 302.36 206.33 302.05 206.71 302.09 205.76 303.1 206.19 303.83 206.85 302.97 206.03 305.66 206.97 305.53 207.15 305.86 206.73 306.32 208.16 306.5 207.35 306.85 207.09 307.45 209.14 307.29 207.51 307.95 207.53 308.35 209.38 307.75 208.24 308.66 207.27 308.53 207.37 309.19 208.74 309.65 208.58 309.32 210.45 307.38 210.19 308.44 211.01 308.48 210.51 308.92 210.55 309.63 210.17 308.81 209.99 309.43 209.54 309.25 208.84 310.02 209.5 310.18 209.97 311.06 210.29 310.29 210.93 311.21 211.25 310.86 212.2 311.61 212.07 310.95 214.89 310.47 212.06 308.39 212.13 307.98 211.82 307.44 211.01 307.05 211.12 306.9 211.97 307.03 211.57 304.43 214.49 300.28 213.58 300.02 212.96 298.5 214.45 297.57 215.55 294.62 216.06 294.95 216.42 294.18 215.79 294.35 215.29 294.09 215.11 292.41 216.56 292.83 217.6 292.26 217.64 290.61 217.96 290.21 222.03 289.13 222.85 287.83 221.16 285.03 225.08 285.3 227.87 280.4 227.95 281.64 234.13 272.58 236.44 272.31 239.41 261.78 239.97 261.98 242.83 257.74 242.65 254.86 241.86 254.28 241.86 254.28" style="fill:#fff"></polygon><polygon points="206.77 228.63 200.7 225.59 197.48 226.82 199.05 226.03 206.77 228.63 206.77 228.63" style="fill:#fff"></polygon><polygon points="203.03 230.57 204.88 230.92 203.03 230.57 203.03 230.57" style="fill:#fff"></polygon><polygon points="219.11 306.7 220.16 305.55 219.11 306.7 219.11 306.7" style="fill:#fff"></polygon><polygon points="220.32 306.79 221.8 306.04 220.32 306.79 220.32 306.79" style="fill:#fff"></polygon><polygon points="191.21 249.04 191.77 250.05 191.21 249.04 191.21 249.04" style="fill:#fff"></polygon><polygon points="254.61 163.71 250.99 163.53 251.42 161.95 254.69 163.15 255.01 161.83 252.65 159.54 253.99 159.72 254.85 158.69 252.68 158.66 252.28 158.01 252.63 157.19 254.63 157.83 256.16 157.42 254.96 156.19 256.97 155.98 257.21 155.31 255.57 154.19 257.15 153.9 256.73 152.07 255.12 151.63 254.45 150.87 258.14 150.69 257.58 149.63 256.08 149.28 257.31 148.99 254.77 148.61 255.33 146.75 258.44 144.4 257.82 143.61 256.32 144.14 259.83 142.96 258.17 142.52 263.8 140.17 260.69 139.2 256.99 140.26 256.19 139.94 252.89 142.32 254.39 140.26 253.83 138.82 249.78 140.61 251.66 139.32 244.85 139.73 255.12 137.65 232.34 136.35 233.25 137.26 231.64 137.79 233.94 139.38 228.32 137.73 229.41 139.11 228.16 139.17 226.49 138.17 226.41 139.44 225.66 140.11 225.18 138.09 218.69 139.7 218.96 141.2 217.22 140.91 213.12 143.35 215.34 143.73 214.59 145.55 208.3 147.58 208.83 148.31 214.22 149.58 209.56 150.22 211.19 150.69 211.22 151.49 219.9 152.57 224.54 158.66 224.08 159.89 224.51 161.24 225.88 160.6 226.2 161.6 227.94 162.51 227.57 162.92 225.15 162.71 228.4 164.97 228.21 166.36 227.06 166.41 225.58 168.59 226.47 169.44 225.77 170.32 234.88 180.43 237.83 173.44 237.64 172.7 239.89 170.62 240.35 170.59 240.54 171.12 254.61 163.71 254.61 163.71" style="fill:#fff"></polygon><polygon points="225.66 165.21 227.3 164.8 226.57 164.06 224.81 163.71 224.67 164.56 225.66 165.21 225.66 165.21" style="fill:#fff"></polygon><polygon points="192.62 149.15 191.73 149.9 192.62 149.15 192.62 149.15" style="fill:#fff"></polygon><polygon points="189.6 148.8 186.95 149.33 189.6 148.8 189.6 148.8" style="fill:#fff"></polygon><polygon points="186.83 144.21 187.71 145.27 190.37 145.36 188.76 146.2 193.46 147.87 196.84 145.36 195.07 144.26 194.67 143.33 188.76 140.77 188.84 141.22 187.47 142.1 187.63 143.2 186.83 144.21 186.83 144.21" style="fill:#fff"></polygon><polygon points="188.72 153.56 186.43 154.53 189.16 155.23 188.72 153.56 188.72 153.56" style="fill:#fff"></polygon><polygon points="182.97 150.78 183.25 151.93 182.21 151.62 181.88 152.32 181.32 152.37 179.83 150.87 179.71 152.1 181.16 153.21 183.33 153.16 183.13 154.4 185.02 154.48 185.78 153.69 184.66 151.18 182.97 150.78 182.97 150.78" style="fill:#fff"></polygon><polygon points="184.66 144.26 183.45 143.77 184.66 144.26 184.66 144.26" style="fill:#fff"></polygon><polygon points="201.82 177.89 201.94 176.79 201.82 177.89 201.82 177.89" style="fill:#fff"></polygon><polygon points="186.35 148.58 187.96 148.27 188.03 147.52 185.18 146.46 186.35 148.58 186.35 148.58" style="fill:#fff"></polygon><polygon points="184.01 161.4 185.62 160.92 186.83 158.5 186.27 158.36 186.15 158.76 185.02 158.28 186.19 157.22 185.54 156.29 182.29 157.57 183.29 158.45 181.48 158.28 184.01 161.4 184.01 161.4" style="fill:#fff"></polygon><polygon points="179.15 146.33 180.36 146.95 178.91 147.21 184.18 148.27 183.81 147.17 178.55 145.27 179.15 146.33 179.15 146.33" style="fill:#fff"></polygon><polygon points="201.18 174.5 197.04 171.32 196.03 171.98 195.03 174.67 196.16 174.63 196.64 175.42 201.18 174.5 201.18 174.5" style="fill:#fff"></polygon><polygon points="198.29 176.92 199.81 175.82 198.29 176.92 198.29 176.92" style="fill:#fff"></polygon><polygon points="205.84 168.5 205.97 167.18 204.8 166.87 204 168.41 205.84 168.5 205.84 168.5" style="fill:#fff"></polygon><polygon points="180.12 154.26 179.27 153.78 180.12 154.26 180.12 154.26" style="fill:#fff"></polygon><polygon points="190.57 154.35 201.18 155.19 201.99 153.6 192.82 152.85 193.1 151.93 186.47 150.87 190.53 152.81 190.57 154.35 190.57 154.35" style="fill:#fff"></polygon><polygon points="181.32 164.23 182.61 164.18 179.55 162.06 178.95 157 177.18 157.44 178.31 158.5 176.09 157.97 176.7 160.39 176.14 160.92 175.45 159.2 173.76 158.5 174.45 159.33 173.4 159.42 171.67 158.41 171.07 159.33 170.39 159.02 170.55 157.88 166.61 159.51 166.33 160.21 167.13 161.54 169.26 161.23 166.89 162.24 172.64 163.34 167.65 164.18 181.72 165.81 181.12 164.93 180.44 164.89 181.32 164.23 181.32 164.23" style="fill:#fff"></polygon><polygon points="179.43 150.03 178.06 148.84 179.43 150.03 179.43 150.03" style="fill:#fff"></polygon><polygon points="208.7 162.2 209.46 161.4 208.09 161.45 204 158.98 202.99 159.82 202.43 159.6 200.94 160.13 200.34 157.26 196.64 158.1 196.92 159.55 196.44 160.48 197.4 161.23 195.87 160.57 196.16 157.88 197.08 157 193.5 157.97 192.66 161.4 194.59 161.8 194.39 162.24 193.02 162.37 199.53 164.27 200.46 163.83 202.51 164.14 202.39 163.52 202.59 163.04 205.52 165.28 204.64 166.12 206.04 165.68 208.26 167.62 208.26 169.34 209.74 169.21 211.15 169.96 209.82 170.66 207.53 169.74 207.29 171.41 203.96 172.16 203.43 173.39 207.69 173.22 209.26 175.51 214.25 177.45 211.87 174.81 215.69 175.25 212.8 171.24 213.04 170.13 215.65 172.03 218.71 169.91 212.48 165.81 213.72 165.5 212.68 164.93 213.2 164.49 212.72 163.65 212.07 164 212.24 163.21 210.19 162.24 209.02 162.51 208.7 162.2 208.7 162.2" style="fill:#fff"></polygon><polygon points="191.69 139.85 192.22 139.98 192.58 140.38 192.3 141.04 193.14 141.66 195.43 141.74 195.71 142.23 202.15 141.3 202.15 142.14 199.17 142.85 200.3 144.17 195.91 142.98 195.95 144.56 199.41 146.95 196.96 146.42 194.63 147.56 196.8 147.61 196.6 148.22 197.64 149.55 194.87 148.53 194.71 150.12 192.86 151.13 203.11 151.35 203.51 150.47 200.54 150.07 200.58 149.5 202.95 149.41 203.11 148.44 204.8 148.31 206.61 146.28 204.2 145.71 215.77 140.42 213.08 140.25 217.99 138.84 218.23 137.87 213.72 137.25 214.09 136.63 193.66 138.84 192.94 139.45 191.01 139.63 191.69 139.85 191.69 139.85" style="fill:#fff"></polygon><polygon points="200.82 157.04 201.38 158.28 204.92 158.36 200.82 157.04 200.82 157.04" style="fill:#fff"></polygon><polygon points="153.43 189.08 154.81 191.27 154.38 189.73 153.43 189.08 153.43 189.08" style="fill:#fff"></polygon><polygon points="172.44 147.69 175.05 147.34 173.08 146.81 171.35 147.61 172.44 147.69 172.44 147.69" style="fill:#fff"></polygon><polygon points="215.89 194.55 218.39 195.48 215.89 194.55 215.89 194.55" style="fill:#fff"></polygon><polygon points="223.81 192.69 223.38 192.36 220.73 197.33 224.24 197.3 224.03 198.01 224.81 197.65 226.49 198.06 226.04 196.66 225.66 196.42 225.72 195.45 224.19 195.07 223.79 194.48 223.09 194.51 223.81 192.69 223.81 192.69" style="fill:#fff"></polygon><polygon points="166.04 153.38 167.45 152.37 166.04 153.38 166.04 153.38" style="fill:#fff"></polygon><polygon points="161.22 160.61 162.51 162.2 169.34 157.48 168.22 156.38 161.14 155.85 161.54 156.78 160.09 159.77 161.22 160.61 161.22 160.61" style="fill:#fff"></polygon><polygon points="174.41 148.53 173.84 148.14 171.55 148.93 172.76 149.81 174.41 148.53 174.41 148.53" style="fill:#fff"></polygon><polygon points="171.07 148.75 169.86 148.49 171.07 148.75 171.07 148.75" style="fill:#fff"></polygon><polygon points="168.98 151.93 169.1 152.59 168.34 153.43 169.26 153.43 167.65 154 172.52 154.04 171.19 154.84 171.15 155.76 177.7 154.44 178.03 152.41 177.02 152.81 175.33 150.82 174.37 151.93 174.45 152.59 175.13 153.34 169.94 151.31 168.98 151.93 168.98 151.93" style="fill:#fff"></polygon><polygon points="163.03 152.72 164.4 152.1 165.04 152.9 166.93 150.78 167.21 151.66 168.78 151.04 168.78 150.3 169.34 149.77 168.62 149.33 168.06 149.72 166.85 149.59 162.71 152.15 163.03 152.72 163.03 152.72" style="fill:#fff"></polygon><polygon points="122.07 189.88 122.55 189.13 122.07 189.88 122.07 189.88" style="fill:#fff"></polygon><polygon points="125.48 187.9 124.28 188.56 125.48 187.9 125.48 187.9" style="fill:#fff"></polygon><polygon points="135.67 182.72 133.5 184.28 133.88 185.06 134.37 185.06 135.55 184.13 135.21 183.53 135.85 183.2 135.67 182.72 135.67 182.72" style="fill:#fff"></polygon><polygon points="122.87 180.12 122.07 180.43 123.33 180.84 123.51 180.16 122.87 180.12 122.87 180.12" style="fill:#fff"></polygon><polygon points="277.83 207.03 277.04 207.32 277.83 207.03 277.83 207.03" style="fill:#fff"></polygon><polygon points="298.24 212.02 295.69 212.05 297.02 212.44 298.24 212.02 298.24 212.02" style="fill:#fff"></polygon><polygon points="305.03 212.39 305.51 211.76 305.5 211.57 304.21 212 303.8 212.7 305.03 212.39 305.03 212.39" style="fill:#fff"></polygon><polygon points="260.93 173.7 262.35 172.34 261.23 170.41 259.74 170 259.63 170.6 257.74 170.57 257.14 171.03 256.78 170.82 256.36 171.13 256.24 171.59 255.65 171.88 255.41 171.09 254.03 170.09 254.16 170.65 253.24 170.87 252.78 171.53 254.75 171.76 254.58 172.25 253.08 172.84 254.39 172.87 254.98 173.57 254.22 174.35 260.93 173.7 260.93 173.7" style="fill:#fff"></polygon><polygon points="266.25 192.28 268.93 191.32 268.92 188.86 269.62 188.38 269.11 187.27 266.95 187.65 267.38 188.12 265.68 188.54 266.2 190 265.35 191.48 266.25 192.28 266.25 192.28" style="fill:#fff"></polygon><polygon points="268.99 182.65 268.38 183.53 268.99 182.65 268.99 182.65" style="fill:#fff"></polygon><polygon points="273.57 180.34 273.72 179.24 273.57 180.34 273.57 180.34" style="fill:#fff"></polygon><polygon points="268.76 183.97 269.41 184.56 269.08 185.3 269.56 185.82 268.81 186.44 269.45 186.19 269.83 186.79 270.35 186.02 270.1 187.71 271.4 187.57 271.95 189.75 270.74 189.95 270.47 190.57 271.01 190.95 270.14 191.63 270.49 192.04 271.97 192.32 272.06 192.57 271.05 192.72 269.9 194.28 270.57 193.86 271.24 194.01 271.64 193.57 276.01 192.66 275.62 192.45 276.44 190.91 275.04 190.34 273.45 186.84 272.03 186.19 273.05 183.81 271.37 183.72 271.06 183.4 271.88 181.99 271.48 182.39 270.5 182.4 269.31 184.19 268.76 183.97 268.76 183.97" style="fill:#fff"></polygon><polygon points="285.19 187.6 285.43 188.04 286.3 186.15 285.99 186.38 285.68 186.15 285.09 186.43 285.44 187.34 285.19 187.6 285.19 187.6" style="fill:#fff"></polygon><polygon points="291.69 183.44 291.07 184.74 291.69 183.44 291.69 183.44" style="fill:#fff"></polygon><polygon points="294.53 183.15 295.46 182.47 294.89 182.28 294.53 183.15 294.53 183.15" style="fill:#fff"></polygon><polygon points="295.29 181.86 294.71 181.93 295.29 181.86 295.29 181.86" style="fill:#fff"></polygon><polygon points="285.78 145.4 285.26 146.37 286.17 147.47 287.45 147.56 288.42 146.35 288.5 146.95 289.28 146.86 289.64 147.19 287.13 148.27 289.76 148.53 287.27 149.33 288.18 150.12 289.06 150.23 288.62 150.6 289.36 151.09 289.96 150.89 292.09 147.06 293.18 146.7 293.82 148.03 293.66 148.97 294.53 149.17 295.03 149.68 296.96 148.51 295.57 148.14 295.41 147.74 294.2 146.9 294.02 146.33 291.71 145.47 291.35 144.7 290.61 145.05 290.85 144.34 289.42 143.53 289.08 144.48 289.64 145.98 288.01 144.21 287.41 145.18 286.73 144.59 287.49 144.28 284.84 144.5 284.84 145.49 285.78 145.4 285.78 145.4" style="fill:#fff"></polygon><polygon points="284.96 147.19 285.6 147.67 284.4 146.31 284.96 147.19 284.96 147.19" style="fill:#fff"></polygon><polygon points="291.35 143.62 291.25 143.99 294.55 144.1 292.66 144.81 295.87 145.51 299.31 143.55 296.18 143.04 295.67 143.31 295.15 142.67 294.99 143.64 292.54 142.54 292.6 142.98 291.93 142.78 291.95 143.33 291.27 142.8 290.89 143.18 291.35 143.62 291.35 143.62" style="fill:#fff"></polygon><polygon points="446.34 175.11 445.21 175.5 448 175.73 446.34 175.11 446.34 175.11" style="fill:#fff"></polygon><polygon points="402.12 202.8 401.37 203.15 400.86 205.09 401.8 204.76 401.26 204.03 403.38 204.29 406.75 201.68 405.01 202.18 403.03 200.59 402.44 200.89 402.12 202.8 402.12 202.8" style="fill:#fff"></polygon><polygon points="396.6 211.97 394.16 212.2 392.76 213.35 392.76 213.94 396.03 213.05 396.41 213.94 397.48 213.88 397.8 213.2 399.89 213.02 400.43 212.44 401.29 212.29 402.14 205.62 400.99 205.97 398.98 210.29 398.39 209.97 397.16 211.76 396.6 211.97 396.6 211.97" style="fill:#fff"></polygon><polygon points="394.61 214.93 395.39 214.61 396.01 213.73 394.24 213.88 394.1 215.2 394.61 214.93 394.61 214.93" style="fill:#fff"></polygon><polygon points="391.42 215.17 391.93 214.88 392.42 217.08 393.43 215.4 393.25 214.76 392.63 214.26 391.8 214.46 391.42 215.17 391.42 215.17" style="fill:#fff"></polygon><polygon points="383.2 226.66 384.32 223.57 382.71 224.96 383.2 226.66 383.2 226.66" style="fill:#fff"></polygon><polygon points="373.79 230.22 374.27 229.04 373.15 228.95 372.26 230.3 373.79 230.22 373.79 230.22" style="fill:#fff"></polygon><polygon points="382.37 232.8 382.85 234.92 385.69 236.42 386.79 238.97 387.49 238.12 387.24 236.91 385.61 235.24 384.35 235 383.89 234.09 384.46 231.07 384.3 230.72 382.98 230.6 382.79 232.92 382.37 232.8 382.37 232.8" style="fill:#fff"></polygon><polygon points="384.32 237.3 384.38 238.65 384.86 238.35 385.07 240.24 386.04 238.65 384.32 237.3 384.32 237.3" style="fill:#fff"></polygon><polygon points="387.54 239.82 386.49 240.79 385.69 240.59 384.64 241.26 384.3 242.29 385.77 241.56 386.52 243.26 387.46 243.79 387.43 242.53 388.4 242.09 388.18 239.88 387.54 239.82 387.54 239.82" style="fill:#fff"></polygon><polygon points="381.21 239.21 380.06 240.85 381.94 238.12 381.21 239.21 381.21 239.21" style="fill:#fff"></polygon><polygon points="386.65 239.32 385.98 239.79 386.65 239.32 386.65 239.32" style="fill:#fff"></polygon><polygon points="382.88 235.8 383.73 236.86 382.88 235.8 382.88 235.8" style="fill:#fff"></polygon><polygon points="411.39 254.19 408.36 254.99 409.84 255.72 411.71 254.69 411.98 253.81 411.39 254.19 411.39 254.19" style="fill:#fff"></polygon><polygon points="407.45 256.13 407.64 255.49 398.5 250.84 396.22 252.67 395.26 250.2 393.19 249.91 392.42 250.55 393.41 251.49 394.85 251.58 394.77 251.87 393.46 252.17 394.02 253.05 398.93 254.78 399.41 256.81 398.55 257.6 400.64 257.49 402.57 258.66 404.21 257.25 410 260.04 407.45 256.13 407.45 256.13" style="fill:#fff"></polygon><polygon points="412.6 254.08 412.3 253.08 412.03 253.14 412.6 254.08 412.6 254.08" style="fill:#fff"></polygon><polygon points="347.31 239.53 347.39 243.26 348.79 241.85 347.31 239.53 347.31 239.53" style="fill:#fff"></polygon><polygon points="318.82 261.22 318.5 261.51 318.37 262.22 317.37 263.1 317.35 263.63 314.26 265.19 314.02 274.59 315.63 275.03 316.57 274.65 319.28 264.86 319.81 264.75 318.82 261.22 318.82 261.22" style="fill:#fff"></polygon><polygon points="322.75 236.67 323.68 236.48 322.75 236.67 322.75 236.67" style="fill:#fff"></polygon><polygon points="418.75 258.85 419.67 259.4 418.75 258.85 418.75 258.85" style="fill:#fff"></polygon><polygon points="419.69 257.85 420.42 259.2 419.69 257.85 419.69 257.85" style="fill:#fff"></polygon><polygon points="420.39 259.81 421.22 260.26 420.39 259.81 420.39 259.81" style="fill:#fff"></polygon><polygon points="415.89 256.13 416.66 256.82 415.89 256.13 415.89 256.13" style="fill:#fff"></polygon><polygon points="414.18 254.9 415.3 256.34 414.18 254.9 414.18 254.9" style="fill:#fff"></polygon><polygon points="418.91 257.9 417.64 257.15 418.91 257.9 418.91 257.9" style="fill:#fff"></polygon><polygon points="406.44 293.14 404.9 292.66 406.53 296.18 407.23 295.28 407.75 295.39 407.97 292.79 406.44 293.14 406.44 293.14" style="fill:#fff"></polygon><polygon points="412.98 278.18 410.06 272.25 409.54 272.29 408.68 270.15 406.59 268.81 404.88 263.87 404.17 263.89 403.03 260.1 400.98 267.18 396.66 264.38 397.7 261.93 397.5 261.45 397.16 261.84 396.82 261.31 396.13 261.62 393.52 260.45 393.86 261.12 392.21 261.87 391.21 263.5 391.25 264.33 390.2 264.49 388.64 263.19 387.83 263.98 387.13 264 386.37 265.75 385.7 265.68 385.84 266.43 385.56 266.93 385.2 266.19 384.5 266.58 384.46 267.75 377.12 272.07 377.02 271.45 376.96 276.21 376.42 275.71 376.68 276.41 376.03 275.88 378.32 283.6 377.8 284.41 378.71 285.71 392.52 281.97 395.21 283 395.27 283.62 396.07 284.46 396.3 285.56 398.71 283.64 397.76 285.82 399.11 285.45 398.99 286.55 399.65 286.51 400.9 289.15 403.65 290.3 404.8 289.57 405.18 289.73 405.34 290.03 405.58 289.83 406.49 290.67 407.75 289.44 409.64 289.06 412.98 278.18 412.98 278.18" style="fill:#fff"></polygon><polygon points="397.36 287.01 398.45 286.86 397.36 287.01 397.36 287.01" style="fill:#fff"></polygon><polygon points="391.67 261.23 392.84 260.92 391.67 261.23 391.67 261.23" style="fill:#fff"></polygon><polygon points="425.9 300.55 426.24 300.11 425.9 300.55 425.9 300.55" style="fill:#fff"></polygon><polygon points="431.71 292.94 430.99 293.19 430.1 292.79 425.02 299.11 426.49 299.8 428.15 299.38 431.83 293.76 431.71 292.94 431.71 292.94" style="fill:#fff"></polygon><polygon points="434.99 289.39 434.1 289.31 433.16 287.92 433.14 288.47 430.97 285.78 432.42 288.34 432.27 289.81 431.53 290.72 432.74 291.91 432.48 293.49 433.3 293.63 434.59 291.05 435.19 290.83 435.87 289.35 434.99 289.39 434.99 289.39" style="fill:#fff"></polygon><polygon points="436.17 266.6 437.12 266.05 436.17 266.6 436.17 266.6" style="fill:#fff"></polygon><polygon points="434.93 267.77 435.97 267.46 434.93 267.77 434.93 267.77" style="fill:#fff"></polygon><polygon points="359.83 144.23 359.21 145.11 363.34 146.58 364.36 144.73 362.35 143.64 359.83 144.23 359.83 144.23" style="fill:#fff"></polygon><polygon points="324.26 157.07 324.02 157.63 322.57 158.57 322.87 159.24 321.21 160.48 322.12 161.07 322.28 161.8 322.63 161.48 324.5 162.74 326.86 162.74 325.63 161.54 325.31 159.39 337.31 150.78 326.14 153.96 325.15 155.92 324.37 156.37 324.26 157.07 324.26 157.07" style="fill:#fff"></polygon><polygon points="363.98 148.37 369.5 146.96 368.32 146.11 367.01 146.4 367.12 145.87 366.58 145.23 365.62 145.61 363.98 148.37 363.98 148.37" style="fill:#fff"></polygon><polygon points="317.13 142.47 318.66 142.14 315.66 142.41 317.13 142.47 317.13 142.47" style="fill:#fff"></polygon><polygon points="357.71 141.32 356.5 141.5 357.71 141.32 357.71 141.32" style="fill:#fff"></polygon><polygon points="358.41 143.41 357.55 144.14 358.35 144.73 361.92 143.2 362.16 142.38 361.11 140.88 358.78 142.05 358.38 142.73 358.41 143.41 358.41 143.41" style="fill:#fff"></polygon><polygon points="318.5 165.94 320.19 165.56 319.38 164.92 318.5 165.94 318.5 165.94" style="fill:#fff"></polygon><polygon points="347.12 158.54 346.43 158.86 347.12 158.54 347.12 158.54" style="fill:#fff"></polygon><polygon points="318.42 142.7 317.56 143.23 320.86 142.41 320.91 141.7 318.42 142.7 318.42 142.7" style="fill:#fff"></polygon><polygon points="323.43 143.17 322.31 143.32 323.43 143.17 323.43 143.17" style="fill:#fff"></polygon><polygon points="324.05 142.08 327.21 141.76 325.01 141.47 324.05 142.08 324.05 142.08" style="fill:#fff"></polygon><polygon points="333.43 142.08 333.88 141.23 331.93 141.99 333.43 142.08 333.43 142.08" style="fill:#fff"></polygon><polygon points="331.47 142.23 331.07 141.7 329.6 141.67 328.9 142.58 331.47 142.23 331.47 142.23" style="fill:#fff"></polygon><polygon points="375.56 155.72 375.02 156.19 376.66 155.89 375.56 155.72 375.56 155.72" style="fill:#fff"></polygon><polygon points="402.92 192.92 402.68 199.53 403.27 198.89 404.05 199.62 403.54 195.95 404.9 195.66 403.24 188.84 402.92 192.92 402.92 192.92" style="fill:#fff"></polygon><polygon points="408.87 155.22 411.04 154.75 407.29 153.72 406.67 154.4 408.87 155.22 408.87 155.22" style="fill:#fff"></polygon><polygon points="404.15 158.19 402.98 156.95 401.47 157.72 404.15 158.19 404.15 158.19" style="fill:#fff"></polygon><polygon points="326.89 142.79 325.68 143.64 328.63 143.05 326.89 142.79 326.89 142.79" style="fill:#fff"></polygon><polygon points="398.55 154.43 399.28 155.07 403.08 154.84 403 153.69 404.66 154.78 405.31 153.93 405.06 153.07 400.08 152.1 398.55 154.43 398.55 154.43" style="fill:#fff"></polygon><polygon points="338.6 158.42 339.99 158.07 339 157.63 338.6 158.42 338.6 158.42" style="fill:#fff"></polygon><polygon points="326.75 141.2 328.42 140.55 325.57 140.85 326.75 141.2 326.75 141.2" style="fill:#fff"></polygon><polygon points="437.87 162.59 439.77 162.36 438.78 161.51 436.58 162.62 437.87 162.59 437.87 162.59" style="fill:#fff"></polygon><polygon points="444.81 171.84 445.83 172.07 445.62 171.79 446.31 171.76 446.89 170.96 442.71 169.34 443.12 169.79 442.99 170.43 442.41 170.15 442.02 168.6 429.08 164.02 428.78 164.65 429.23 165.44 429 166.41 426.87 165.27 427.97 164.73 426.83 164.21 425.76 165.14 420.76 165.03 420.57 165.96 420.33 165 419.15 164.52 419.31 163.89 417.84 162.48 412.29 162.62 412.05 162.14 409.42 161.2 409.33 160.88 410.06 160.49 407.14 159.97 406.61 160.94 405.64 160.85 406.35 160.36 405.33 160.02 406.75 159.76 402 158.79 401.8 159.24 400.16 160.17 400.88 160.19 400.64 160.71 400.93 161.39 399.33 161.33 399.08 161.55 399.08 161.95 396.96 161.21 395.91 161.6 394.04 160.98 392.96 162.77 390.22 160.23 391.24 160.32 390.66 158.2 386.67 156.75 385.78 157.75 385.77 158.5 381.25 158.14 381.63 157.67 376.86 157.54 376.74 158.07 376.59 157.1 374.15 156.54 373.13 157.19 373.68 157.35 369.7 158.73 369.93 158.04 376.93 153.76 376.52 153.43 376.98 153.25 376.67 152.31 376.08 152.19 375.89 151.38 370.39 151.53 371.04 150.6 368.48 150.31 369.6 149.84 369.7 149.46 367.99 148.99 365.17 150.96 365.35 151.38 363.46 151.77 364.05 152.26 361.39 152.49 361.65 151.93 358.73 152.49 359.28 152.9 353.41 154.87 353.65 155.22 352.87 155.18 353.77 155.82 353.09 155.87 353.77 156.53 353.68 156.95 348.45 157.45 348.15 159.14 349.91 160.83 345.64 159.33 345.06 159.83 345.93 160.3 344.2 160.67 346.23 162.2 346.09 162.49 343.5 161.76 343.28 158.89 341.36 161.57 342.39 162.93 341.9 165.61 345.39 166.14 345.73 166.9 345.31 167.63 346.36 168.4 345.34 168.31 344.93 167.68 345.15 166.96 344.12 165.92 342.73 166.33 342.92 167.71 340.65 170.34 338.79 170.43 337.62 169.75 339.15 170.06 341.6 166.96 341.63 166.59 340.92 165.74 341.11 162.74 340.37 161.61 341.05 159.17 338.2 158.67 335.5 162.52 336.01 162.65 335.55 164.59 336.62 165.03 337.01 165.84 337.56 166.15 336.99 167.13 328.13 163.36 328.39 164.18 329.64 164.93 330.05 165.75 329.77 166.3 328.68 166.84 328.68 166.25 328.13 165.8 323.15 167.13 323.79 165.9 322.56 166.3 322.39 166.86 321.98 166.59 318.04 168.19 317.84 169.24 316.3 169.46 315.58 168.71 315.55 168.08 316.99 167.77 316.44 166.81 314.16 166.33 314.59 167.4 314.24 168.5 314.87 169.74 314.59 170.5 314.2 170.49 313.93 170.19 313.02 170 310.77 171.38 311.2 173.03 308.14 172.04 307.59 172.6 307.86 173.17 308.75 173.51 308.82 174.12 307.43 174 306.13 172.91 306.01 170.91 303.56 168.78 309.24 170.59 311.87 169.32 311.79 168.15 303.85 164.65 304.52 164.42 302.73 164.26 302.67 164.21 301.59 164.2 301 163.7 302.67 163.27 301.04 162.27 300.11 162.89 300.22 162.33 299.85 161.77 298.75 163.11 298.76 162.27 297.31 163.55 298.06 162.15 297.96 161.77 297.46 162.21 296.82 162.13 296.46 162.65 295.83 162.89 295.52 163.84 295.18 163.2 295.85 162.3 294.8 162.55 294.85 163.21 294.59 163.42 293.91 163.43 294.42 163.93 293.51 163.55 293.21 163.74 293.43 164.39 292.61 164.14 292.54 163.56 291.91 163.62 291.66 163.9 291.58 164.36 290.35 164.73 289.88 165.4 290.45 165.36 290.57 165.71 290.49 165.97 290.02 166.03 289.62 165.77 289.13 166.03 289.34 165.21 286.73 167.37 289.69 166.55 289.61 167.08 289.36 167.24 288.99 167.05 286.89 170.47 286.18 170.6 286.06 172.19 284.87 172.5 285.38 173.12 283.28 174.98 282.79 174.56 282.68 175.11 281.31 175.81 281.8 176.2 281.02 176.22 279.37 177.57 279.72 178.07 279.45 179.88 279.92 180.04 280.56 179.77 280.73 180.08 280.25 180.49 279.89 180.39 279.58 180.68 279.52 181.27 280.51 181.26 279.91 181.96 281.92 183.09 284.24 181.58 284.46 180.86 286.68 186.91 287.38 186.9 288 185.99 288.75 185.91 289.27 185.46 289.6 185.6 290.1 184.66 289.78 184.72 289.92 182.62 291.78 180.37 290.92 179.33 290.28 179.14 291.18 175.83 294.06 173.37 294.31 171.6 294.9 171.09 297.07 171.34 297.39 172.1 293.76 175.86 293.8 179.27 295.2 179.96 299.81 179.39 300.25 178.79 299.82 179.39 300.19 179.24 300.77 179.89 301.56 180.08 296.21 181.2 295.67 181.77 295.85 182.4 296.39 182.74 296.48 184.14 295.75 184.52 294.94 183.49 294.07 183.93 293.55 187.07 293.7 187.22 293.4 187.76 292.36 187.81 292.3 188.04 291.81 188.32 291.38 187.71 287.73 189.08 287.12 188.63 287.2 188.06 285.38 188.94 283.5 187.27 284.61 187.35 284.29 186.74 283.87 186.68 284.13 186.06 284.7 185.72 284.28 185.25 284.34 183.71 283.15 184.41 283.19 184.85 282.67 184.56 282.21 185.28 283.1 189.04 282.71 189.44 281.36 189.46 281.33 189.66 280.19 189.79 277.08 192.86 276.88 192.88 274.8 195.13 273.66 194.7 273.14 195.08 273.26 196.14 271.04 195.91 270.47 196.38 270.58 196.99 272.58 197.65 273.58 198.95 273.26 202.71 267.55 202.19 266.8 202.71 266.69 210.01 268.6 210.09 269.7 211.23 269.91 210.91 273.07 210.13 274.79 208.13 274.8 206.68 277.75 203.82 277.7 203.56 278.45 202.58 280.11 202.97 282.79 201.46 288.74 206.57 289.11 209.03 290.09 207.62 289.68 206.84 291.23 206.46 286.08 201.46 286.1 200.46 286.5 199.9 287.08 199.81 293.28 208.04 294.74 208.6 293.78 208.69 294.43 210.22 295.28 210.66 295.12 209.66 295.75 209.63 295.33 209.23 296.31 208.95 296.01 208.15 295.26 208.17 295.56 207.65 294.82 206.53 295.29 206.25 296.01 206.37 296.19 205.62 296.74 205.81 297.42 205.44 298.56 206.04 300.62 205.34 299.4 203.24 301.24 200.3 301.24 200.25 302.45 198.51 303.45 198.34 303.54 198.99 305.02 199.23 303.81 199.96 304.72 200.42 304.76 201.18 307.58 200.39 305.93 199.31 309.88 197.89 308.76 198.61 309.11 199.17 307.83 200.4 311.87 203.43 312.21 204.46 312.01 204.8 300.79 205.32 300.33 206.09 298.43 206.26 298.24 207 298.61 207.28 298.72 209.25 300.79 210.94 302.69 210.33 303.92 211.13 307.1 210.35 306.12 214.34 306.59 214.56 306.12 214.34 305.15 216.73 297.11 215.97 297.09 215.93 294.49 214.8 292.46 215.93 292.58 217.23 283.9 213.6 284.61 212.91 284.68 210.35 269.47 211.61 259.29 227.4 259.61 235.94 267.57 244.53 278.98 242.81 280.32 244.67 282.6 244.3 282.98 244.85 283.67 245.01 283.55 248.2 283.39 248.41 283.74 248.91 282.88 249.95 291.14 284.6 291.99 285.27 299.94 282.72 303.87 276.1 303.5 275.72 306.06 273.8 305.7 269.09 311.04 263.98 309.33 255.3 320.63 237.47 320.04 237.14 313.88 238.21 313.41 237.64 313.26 237.83 313.41 237.64 312.93 237.41 313.45 236.96 303.65 217.77 305.17 220.36 305.72 218.94 313.56 236.15 324.24 231.92 324.58 231.14 325.57 230.96 328.54 226.67 327.71 225.09 326.19 224.47 325.45 222.18 321.58 224.71 321.39 224.65 320.93 222.46 320.32 223.43 320.26 223.44 317.9 218.44 317.98 218.28 319.64 217.86 321.09 220.33 324.25 221.79 325.71 221.35 326.41 222.66 335.09 223.37 337.46 225.91 338.45 225.97 337.19 226.44 339.12 228.16 340.36 226.62 344.64 241.1 353.13 227.66 356.85 225.98 359.36 230.83 359.22 232.43 359.6 232.98 360.48 232.86 361.25 231.86 368.01 247.95 363.61 239.77 364.21 236.15 364.97 235.9 366.68 237.09 366.93 237.99 367.49 238.09 367.53 238.62 368.25 238.69 368.74 239.18 368.48 240.04 368.94 240.44 372.72 236.77 369.56 229.44 371.33 227.4 372.9 227.26 373.35 228.54 382.14 223.03 382.14 221.78 384.5 218.37 383.28 217.84 384.23 217.33 382.88 216.14 384.19 216.28 381.88 212.92 384.82 210.44 383.41 209.41 382.2 210.28 381.64 209.48 380.7 209.13 380.69 207.9 384.42 206.06 383.67 208.17 386.41 207.07 387.44 207.63 386.91 208.7 387.07 209.31 387.52 209.56 388.22 209.41 388.72 210.07 388.46 213.27 391.45 211.82 389.47 207.88 392.86 203.48 392.86 203.48 393.61 203.03 394.65 203.68 402.17 190.43 400.58 188.85 399.8 188.88 399.24 189.6 398.73 189.65 398.66 188.66 398.1 189.37 397.99 188.35 396.96 188.32 397 187.59 404.26 181.42 411.75 181.62 411.3 182.27 414.74 181.68 414.38 181.37 414.31 180.53 416.79 177.91 419.54 177.76 419.1 178.68 419.61 179.07 419.36 179.48 421.96 178.17 422.15 177.2 423.7 176.6 416.39 183.8 416.27 193.36 417.68 191.89 417.88 190.88 419.16 190.28 419.08 189.44 419.95 188.53 421.04 188.32 420.88 187.34 421.52 186.13 422.22 186.09 421.79 185.43 421.95 183.78 421.37 183.83 421.27 182.8 422.71 180.67 423.85 180.8 424.76 179.84 424.95 180.71 428.06 179.99 428.73 180.62 434.89 176.69 437.05 176.73 435.07 173.34 434.31 173.16 435.2 172.88 435.69 173.37 437.92 172.62 438.08 171.03 438.42 170.71 438.9 170.68 438.78 171.21 439.1 171.88 444.53 173.85 444.13 173.31 444.57 173.42 444.53 171.96 444.81 171.84 444.81 171.84" style="fill:#fff"></polygon><polygon points="402.01 156.25 401.15 156.63 402.01 156.25 402.01 156.25" style="fill:#fff"></polygon><polygon points="422.78 270.16 425.41 272.16 422.78 270.16 422.78 270.16" style="fill:#fff"></polygon><polygon points="203.46 223.45 203.13 223.74 203.8 224.81 203.46 223.45 203.46 223.45" style="fill:#fff"></polygon><polygon points="218.28 239.03 218.97 238.94 218.92 238.36 218.26 238.56 218.28 239.03 218.28 239.03" style="fill:#fff"></polygon><polygon points="389.9 247.94 389.28 247.55 389.76 249.73 390.43 248.2 389.9 247.94 389.9 247.94" style="fill:#fff"></polygon><polygon points="369.63 253.64 369.77 252.61 370.14 252.37 370.17 251.76 369.42 250.96 369.31 251.4 369.66 251.87 360.09 243.7 368.35 255.08 369.31 255.11 369.63 253.64 369.63 253.64" style="fill:#fff"></polygon><polygon points="389.76 252.55 392.15 253.2 391.53 252.2 389.76 252.55 389.76 252.55" style="fill:#fff"></polygon><polygon points="371.73 252.17 371.24 252.4 371.73 252.17 371.73 252.17" style="fill:#fff"></polygon><polygon points="372.24 248.64 375.08 252.73 376.28 252.58 377.44 253.17 378.75 252.93 379.98 249.2 381.35 248.35 380.19 245.14 381.72 244.09 379.47 242.5 377.62 244.67 376.98 244.56 376.18 245.94 374.86 246.38 374.27 247.64 372.82 247.26 372.24 248.64 372.24 248.64" style="fill:#fff"></polygon><polygon points="361.65 247.85 362.21 248.64 361.65 247.85 361.65 247.85" style="fill:#fff"></polygon><polygon points="362.96 250.38 363.39 250.93 362.96 250.38 362.96 250.38" style="fill:#fff"></polygon><polygon points="377.25 257.84 378.32 257.87 375.83 256.99 376.74 256.31 369.74 255.46 369.31 256.05 369.98 256.19 370.47 256.75 377.25 257.84 377.25 257.84" style="fill:#fff"></polygon><polygon points="387.91 252.61 389.01 252.93 387.91 252.61 387.91 252.61" style="fill:#fff"></polygon><polygon points="385.74 259.66 389.09 257.66 386.17 258.54 385.74 259.66 385.74 259.66" style="fill:#fff"></polygon><polygon points="381.32 251.87 382.26 255.08 382.61 252.28 383.65 253.7 384.48 253.81 384.05 251.08 385.42 249.99 383.57 250.58 382.45 249.61 387.03 247.85 382.69 248.49 381.32 251.87 381.32 251.87" style="fill:#fff"></polygon><polygon points="383.12 259.46 381.45 258.96 383.12 259.46 383.12 259.46" style="fill:#fff"></polygon><polygon points="380.11 257.52 379.28 257.63 378.86 258.16 381.45 257.99 380.11 257.52 380.11 257.52" style="fill:#fff"></polygon><polygon points="385.5 257.87 385.8 257.57 382.18 258.02 385.5 257.87 385.5 257.87" style="fill:#fff"></polygon><polygon points="288.06 208.87 286.19 209.26 288.16 210.53 288.78 208.92 288.06 208.87 288.06 208.87" style="fill:#fff"></polygon><polygon points="282.21 205.71 282.92 207.94 283.55 207.51 283.7 205.9 282.87 205.53 282.21 205.71 282.21 205.71" style="fill:#fff"></polygon></g><line x1="125.45" y1="294.46" x2="443.52" y2="294.46" style="fill:none;stroke:#263238;stroke-miterlimit:10;stroke-width:0.5px"></line><line x1="125.45" y1="294.46" x2="125.45" y2="292" style="fill:none;stroke:#263238;stroke-miterlimit:10;stroke-width:0.5px"></line><line x1="165.21" y1="294.46" x2="165.21" y2="292" style="fill:none;stroke:#263238;stroke-miterlimit:10;stroke-width:0.5px"></line><line x1="204.97" y1="294.46" x2="204.97" y2="292" style="fill:none;stroke:#263238;stroke-miterlimit:10;stroke-width:0.5px"></line><line x1="244.73" y1="294.46" x2="244.73" y2="292" style="fill:none;stroke:#263238;stroke-miterlimit:10;stroke-width:0.5px"></line><line x1="284.48" y1="294.46" x2="284.48" y2="292" style="fill:none;stroke:#263238;stroke-miterlimit:10;stroke-width:0.5px"></line><line x1="324.24" y1="294.46" x2="324.24" y2="292" style="fill:none;stroke:#263238;stroke-miterlimit:10;stroke-width:0.5px"></line><line x1="364" y1="294.46" x2="364" y2="292" style="fill:none;stroke:#263238;stroke-miterlimit:10;stroke-width:0.5px"></line><line x1="403.76" y1="294.46" x2="403.76" y2="292" style="fill:none;stroke:#263238;stroke-miterlimit:10;stroke-width:0.5px"></line><line x1="443.52" y1="294.46" x2="443.52" y2="292" style="fill:none;stroke:#263238;stroke-miterlimit:10;stroke-width:0.5px"></line><line x1="185.09" y1="217.52" x2="145.33" y2="229.82" style="fill:none;stroke:#263238;stroke-linecap:round;stroke-miterlimit:10;stroke-width:2px"></line><line x1="224.85" y1="190.47" x2="185.09" y2="217.52" style="fill:none;stroke:#263238;stroke-linecap:round;stroke-miterlimit:10;stroke-width:2px"></line><line x1="264.6" y1="153.59" x2="224.85" y2="190.47" style="fill:none;stroke:#263238;stroke-linecap:round;stroke-miterlimit:10;stroke-width:2px"></line><line x1="304.36" y1="149.9" x2="264.6" y2="153.59" style="fill:none;stroke:#263238;stroke-linecap:round;stroke-miterlimit:10;stroke-width:2px"></line><line x1="344.12" y1="176.95" x2="304.36" y2="149.9" style="fill:none;stroke:#263238;stroke-linecap:round;stroke-miterlimit:10;stroke-width:2px"></line><line x1="383.88" y1="202.77" x2="344.12" y2="176.95" style="fill:none;stroke:#263238;stroke-linecap:round;stroke-miterlimit:10;stroke-width:2px"></line><line x1="423.64" y1="148.67" x2="383.88" y2="202.77" style="fill:none;stroke:#263238;stroke-linecap:round;stroke-miterlimit:10;stroke-width:2px"></line><path d="M145.33,224.75h0a5.07,5.07,0,0,1,5.07,5.07h0a5.07,5.07,0,0,1-5.07,5.06h0a5.07,5.07,0,0,1-5.07-5.06h0A5.07,5.07,0,0,1,145.33,224.75Z" style="fill:#00CA7D;stroke:#263238;stroke-miterlimit:10"></path><path d="M185.09,212.45h0a5.07,5.07,0,0,1,5.07,5.07h0a5.07,5.07,0,0,1-5.07,5.07h0a5.07,5.07,0,0,1-5.07-5.07h0A5.07,5.07,0,0,1,185.09,212.45Z" style="fill:#00CA7D;stroke:#263238;stroke-miterlimit:10"></path><path d="M224.85,185.41h0a5.06,5.06,0,0,1,5.06,5.06h0a5.06,5.06,0,0,1-5.06,5.07h0a5.07,5.07,0,0,1-5.07-5.07h0A5.07,5.07,0,0,1,224.85,185.41Z" style="fill:#00CA7D;stroke:#263238;stroke-miterlimit:10"></path><path d="M264.6,148.52h0a5.07,5.07,0,0,1,5.07,5.07h0a5.07,5.07,0,0,1-5.07,5.07h0a5.07,5.07,0,0,1-5.06-5.07h0A5.07,5.07,0,0,1,264.6,148.52Z" style="fill:#00CA7D;stroke:#263238;stroke-miterlimit:10"></path><path d="M304.36,144.84h0a5.06,5.06,0,0,1,5.07,5.06h0a5.07,5.07,0,0,1-5.07,5.07h0a5.06,5.06,0,0,1-5.06-5.07h0A5.05,5.05,0,0,1,304.36,144.84Z" style="fill:#00CA7D;stroke:#263238;stroke-miterlimit:10"></path><path d="M344.12,171.88h0a5.07,5.07,0,0,1,5.07,5.07h0a5.07,5.07,0,0,1-5.07,5.07h0a5.07,5.07,0,0,1-5.07-5.07h0A5.07,5.07,0,0,1,344.12,171.88Z" style="fill:#00CA7D;stroke:#263238;stroke-miterlimit:10"></path><rect x="378.81" y="197.7" width="10.13" height="10.13" rx="5.07" style="fill:#00CA7D;stroke:#263238;stroke-miterlimit:10"></rect><path d="M423.64,143.61h0a5.05,5.05,0,0,1,5.06,5.06h0a5.06,5.06,0,0,1-5.06,5.07h0a5.07,5.07,0,0,1-5.07-5.07h0A5.06,5.06,0,0,1,423.64,143.61Z" style="fill:#00CA7D;stroke:#263238;stroke-miterlimit:10"></path><polyline points="145.32 258.03 186.22 247.63 225.04 249.02 263.86 257.33 304.76 234.46 344.97 252.48 383.8 253.87 424 242.78" style="fill:none;stroke:#787878;stroke-linecap:round;stroke-miterlimit:10;stroke-width:2px"></polyline><path d="M145.33,253.17h0a5.07,5.07,0,0,1,5.07,5.07h0a5.07,5.07,0,0,1-5.07,5.07h0a5.07,5.07,0,0,1-5.07-5.07h0A5.07,5.07,0,0,1,145.33,253.17Z" style="fill:#263238;stroke:#263238;stroke-miterlimit:10"></path><path d="M185.09,243h0a5.07,5.07,0,0,1,5.07,5.06h0a5.07,5.07,0,0,1-5.07,5.07h0A5.07,5.07,0,0,1,180,248h0A5.07,5.07,0,0,1,185.09,243Z" style="fill:#263238;stroke:#263238;stroke-miterlimit:10"></path><path d="M224.85,243.64h0a5.06,5.06,0,0,1,5.06,5.07h0a5.06,5.06,0,0,1-5.06,5.06h0a5.07,5.07,0,0,1-5.07-5.06h0A5.07,5.07,0,0,1,224.85,243.64Z" style="fill:#263238;stroke:#263238;stroke-miterlimit:10"></path><path d="M264.6,251.82h0a5.07,5.07,0,0,1,5.07,5.06h0A5.07,5.07,0,0,1,264.6,262h0a5.07,5.07,0,0,1-5.06-5.07h0A5.07,5.07,0,0,1,264.6,251.82Z" style="fill:#263238;stroke:#263238;stroke-miterlimit:10"></path><path d="M304.36,229.41h0a5.07,5.07,0,0,1,5.07,5.07h0a5.06,5.06,0,0,1-5.07,5.06h0a5.05,5.05,0,0,1-5.06-5.06h0A5.06,5.06,0,0,1,304.36,229.41Z" style="fill:#263238;stroke:#263238;stroke-miterlimit:10"></path><path d="M344.12,246.06h0a5.07,5.07,0,0,1,5.07,5.07h0a5.06,5.06,0,0,1-5.07,5.06h0a5.06,5.06,0,0,1-5.07-5.06h0A5.07,5.07,0,0,1,344.12,246.06Z" style="fill:#263238;stroke:#263238;stroke-miterlimit:10"></path><rect x="378.81" y="247.61" width="10.13" height="10.13" rx="5.07" style="fill:#263238;stroke:#263238;stroke-miterlimit:10"></rect><path d="M423.64,237.89h0A5.06,5.06,0,0,1,428.7,243h0a5.06,5.06,0,0,1-5.06,5.07h0a5.07,5.07,0,0,1-5.07-5.07h0A5.07,5.07,0,0,1,423.64,237.89Z" style="fill:#263238;stroke:#263238;stroke-miterlimit:10"></path><line x1="205.33" y1="98.21" x2="245.51" y2="98.21" style="fill:none;stroke:#263238;stroke-miterlimit:10"></line><line x1="205.33" y1="105.05" x2="245.51" y2="105.05" style="fill:none;stroke:#263238;stroke-miterlimit:10"></line><line x1="205.33" y1="111.89" x2="245.51" y2="111.89" style="fill:none;stroke:#263238;stroke-miterlimit:10"></line><line x1="205.33" y1="118.73" x2="245.51" y2="118.73" style="fill:none;stroke:#263238;stroke-miterlimit:10"></line><rect x="347.05" y="120.07" width="48.93" height="34.66" style="fill:#263238;stroke:#263238;stroke-linecap:round;stroke-linejoin:round"></rect><circle cx="371.43" cy="137.16" r="13.01" transform="translate(219.52 502.8) rotate(-87.71)" style="fill:#00CA7D;stroke:#263238;stroke-linecap:round;stroke-linejoin:round"></circle><polygon points="365.43 129.72 379.11 136.81 366.13 145.11 365.43 129.72" style="fill:#263238;stroke:#263238;stroke-linecap:round;stroke-linejoin:round"></polygon><polyline points="394.19 135.32 422.62 135.32 422.62 146.42" style="fill:none;stroke:#263238;stroke-linecap:round;stroke-linejoin:round"></polyline><line x1="347.75" y1="159.59" x2="394.19" y2="159.59" style="fill:none;stroke:#263238;stroke-linecap:round;stroke-linejoin:round"></line><line x1="347.75" y1="163.05" x2="394.19" y2="163.05" style="fill:none;stroke:#263238;stroke-linecap:round;stroke-linejoin:round"></line><line x1="347.75" y1="166.52" x2="394.19" y2="166.52" style="fill:none;stroke:#263238;stroke-linecap:round;stroke-linejoin:round"></line><rect x="347.05" y="269.81" width="48.93" height="34.66" style="fill:#6e6e6e;stroke:#263238;stroke-linecap:round;stroke-linejoin:round"></rect><polygon points="387.26 283.68 376.17 293.38 367.16 280.21 347.05 296.96 347.05 304.48 395.99 304.48 395.99 293.01 387.26 283.68" style="fill:#00CA7D;stroke:#263238;stroke-linecap:round;stroke-linejoin:round"></polygon><path d="M360.92,276.75a3.47,3.47,0,1,1-3.47-3.47A3.46,3.46,0,0,1,360.92,276.75Z" style="fill:#00CA7D;stroke:#263238;stroke-linecap:round;stroke-linejoin:round"></path><polyline points="394.19 285.06 422.62 285.06 422.62 251.09" style="fill:none;stroke:#263238;stroke-linecap:round;stroke-linejoin:round"></polyline><line x1="347.75" y1="309.33" x2="394.19" y2="309.33" style="fill:none;stroke:#263238;stroke-linecap:round;stroke-linejoin:round"></line><line x1="347.75" y1="312.79" x2="394.19" y2="312.79" style="fill:none;stroke:#263238;stroke-linecap:round;stroke-linejoin:round"></line><line x1="347.75" y1="316.26" x2="394.19" y2="316.26" style="fill:none;stroke:#263238;stroke-linecap:round;stroke-linejoin:round"></line></g><g id="freepik--Plants--inject-319"><path d="M422.32,425.78s-26.49-46.52-20.38-58.35,21.74,9.46,21.74,9.46-13.59-43.37-6.11-62.29,20.37,0,21.05,13.4-2.71,36.28-2.71,36.28,5.43-47.32,18.34-33.12-16.31,61.5-16.31,61.5,19.7-11,19,3.16-23.77,26.81-23.77,26.81" style="fill:#00CA7D"></path><path d="M422.55,417.11S398,394.24,410,384s18.22,11,18.22,11-13.2-65.45,8.18-67.82S442,384,442,384s18.23-25.23,17-4.73-28.29,37.85-28.29,37.85" style="fill:none;stroke:#263238;stroke-miterlimit:10"></path><line x1="434.59" y1="412.95" x2="418.02" y2="395" style="fill:none;stroke:#263238;stroke-miterlimit:10"></line><line x1="431.14" y1="414.33" x2="435.62" y2="361.86" style="fill:none;stroke:#263238;stroke-miterlimit:10"></line><line x1="430.45" y1="410.53" x2="445.29" y2="390.86" style="fill:none;stroke:#263238;stroke-miterlimit:10"></line><polygon points="451.92 406.87 406.09 406.87 410.67 460.92 447.33 460.92 451.92 406.87" style="fill:#263238"></polygon></g><g id="freepik--Floor--inject-319"><line x1="46.77" y1="460.92" x2="37" y2="460.92" style="fill:none;stroke:#263238;stroke-miterlimit:10"></line><line x1="466" y1="460.92" x2="54.07" y2="460.92" style="fill:none;stroke:#263238;stroke-miterlimit:10"></line></g><g id="freepik--Character--inject-319"><path d="M68,275.75s2.47,54.5,4.67,73.49a287.65,287.65,0,0,1,1.82,49.88C73.71,416.25,77.6,446.3,77.6,447v4s-6,9.1-9.32,12-5.1,5.77-4,7.32,4.21,4,12.86,1.77,12-4.66,14-7.54a19.73,19.73,0,0,1,5.32-4.88,97.11,97.11,0,0,1,11.31,3.11c5.77,2,10.43,4.21,17.08,4.21s8-4.21,6.43-6.21-12.64-7.54-14.41-11.09-.89-6.43-.89-14.42,1.94-28.52,2.56-39.2,13.76-44.15,16.11-60.9,5.55-34.22,5.83-42.67.16-16,.16-16,.18-.89-.65-4.63-1.06-3.73-21.85-1.89a349.49,349.49,0,0,1-41,1.41C70.68,271.18,68.54,273.06,68,275.75Z" style="fill:#00CA7D;stroke:#263238;stroke-linecap:round;stroke-linejoin:round"></path><path d="M111.34,306.19s-2.88,49-7.18,66.71S97.78,421,97.78,430.78s-.66,17.08-.66,17.08" style="fill:none;stroke:#263238;stroke-linecap:round;stroke-linejoin:round"></path><line x1="111.11" y1="315.75" x2="120.41" y2="305.34" style="fill:none;stroke:#263238;stroke-linecap:round;stroke-linejoin:round"></line><line x1="85.58" y1="281.6" x2="82.99" y2="297.34" style="fill:none;stroke:#263238;stroke-linecap:round;stroke-linejoin:round"></line><line x1="91.5" y1="299.95" x2="91.74" y2="302.62" style="fill:none;stroke:#263238;stroke-linecap:round;stroke-linejoin:round"></line><line x1="89.88" y1="282.36" x2="91.16" y2="296.28" style="fill:none;stroke:#263238;stroke-linecap:round;stroke-linejoin:round"></line><polyline points="113.85 278.9 113.64 295 119.16 291.44 120.01 279.09" style="fill:none;stroke:#263238;stroke-linecap:round;stroke-linejoin:round"></polyline><line x1="135.64" y1="279.33" x2="137.25" y2="293.93" style="fill:none;stroke:#263238;stroke-linecap:round;stroke-linejoin:round"></line><line x1="133.26" y1="278.97" x2="130.45" y2="289.98" style="fill:none;stroke:#263238;stroke-linecap:round;stroke-linejoin:round"></line><path d="M147.41,182.93C146,179.59,126,174.26,117,171.13s-19.57-3.36-22.19-1.69c0,0-15.48,8.65-26.64,12.7s-18.12,6.63-19,9.65c-.69,2.43-4.13,36-5.43,48.78-.5,2.35-1.32,6-2,8.26-1.12,3.45,3,11.06,9.69,13.73s9.4-2.27,11.2-6.32c1.34-3,2.81-6.57,3.46-8.38.26,1.5,2.55,15.09,1.06,20.51C65.51,274.11,66,278.48,69.6,280s68.71-4.11,69.74-3.17,5.21-.94,6.73-4.84a13.81,13.81,0,0,0,0-9.5c-.62-1.24-1.26-5.89-1.26-5.89s5.35,2.31,10.13,1.38,9.47-6.81,9.68-14.76S148.84,186.27,147.41,182.93Z" style="fill:#263238;stroke:#263238;stroke-linecap:round;stroke-linejoin:round"></path><path d="M60.81,212.57c-.42-2.87-.7-4.85-.75-5.26" style="fill:none;stroke:#828282;stroke-linecap:round;stroke-linejoin:round"></path><path d="M66,247.86s-2.52-16.94-4.29-28.94" style="fill:none;stroke:#828282;stroke-linecap:round;stroke-linejoin:round"></path><line x1="144.8" y1="256.62" x2="144.21" y2="196.82" style="fill:none;stroke:#828282;stroke-linecap:round;stroke-linejoin:round"></line><circle cx="110.66" cy="232.81" r="20.89" transform="translate(-132.21 146.44) rotate(-45)" style="fill:#00CA7D;stroke:#263238;stroke-linecap:round;stroke-linejoin:round"></circle><polygon points="101.03 220.87 123 232.25 102.15 245.59 101.03 220.87" style="fill:#263238;stroke:#263238;stroke-linecap:round;stroke-linejoin:round"></polygon><path d="M117,171.13c-9.07-3.13-19.57-3.36-22.19-1.69,0,0-3.6,2-8.57,4.54-.24,1.75-.38,4,.22,5.06,1.08,1.93,20,24.46,23.61,23.59s14.91-24.49,15.32-27.91c0-.31.07-.58.11-.86C122.25,172.86,119.26,171.92,117,171.13Z" style="fill:#fff;stroke:#263238;stroke-linecap:round;stroke-linejoin:round"></path><path d="M41.75,234.93a44.32,44.32,0,0,0,9.75,5.51c4.61,1.64,9.79,6.36,10.55,10.58s1.24,8.59-3.55,12.5-11.31.51-16.66-4.78-6.61-17.56-8-20.05S35.79,231.66,41.75,234.93Z" style="fill:#fff;stroke:#263238;stroke-linecap:round;stroke-linejoin:round"></path><path d="M43.5,239s1.59-5.45-.36-7.92-6.55-6.79-7.33-11.57-1.37-8.16-3.33-7.79-3.12,6.24-2.27,9.46,1.86,6.58,1.65,8.15-2.71,2.67-3,5.8,3.13,12.76,5.36,15.07,8.65,0,10.33-3.59S43.5,239,43.5,239Z" style="fill:#fff;stroke:#263238;stroke-linecap:round;stroke-linejoin:round"></path><path d="M27.76,245.21s0,2.83,3.59,4.09,8.28-1.94,6.61-7.39a14.77,14.77,0,0,0-3.65.87C32.93,243.41,30.21,246,27.76,245.21Z" style="fill:#fff;stroke:#263238;stroke-linecap:round;stroke-linejoin:round"></path><path d="M25.45,241.2s.13,2.83,1.48,4.33,5.59,1.45,8.78-.12,2.87-5.51,2.11-6.61-1-.52-2.26.24-5.32,1.52-7,1.6S26.28,240.74,25.45,241.2Z" style="fill:#fff;stroke:#263238;stroke-linecap:round;stroke-linejoin:round"></path><path d="M24.51,236s-2.3,2.51-.63,4.85,6.92,2.52,10,1.39S37.68,239,37.59,237s-1.65-2.19-2.79-2.14S24.51,236,24.51,236Z" style="fill:#fff;stroke:#263238;stroke-linecap:round;stroke-linejoin:round"></path><path d="M32.43,229.4s-7.95-.2-10.16.89a3.84,3.84,0,0,0-1.46,5.45c1.06,1.51,8,1.2,10.8.65s3.77-1.31,3.67-3.57A4,4,0,0,0,32.43,229.4Z" style="fill:#fff;stroke:#263238;stroke-linecap:round;stroke-linejoin:round"></path><path d="M174.36,214.59s-15.6,12.33-21.68,15.73-6.26,18.29-3.77,23.13,8.75,5.28,15.36,1,17-22.6,19.77-29.68,3.71-8.81,3.71-8.81,5.83.3,9.57-1.57,4.41-9,4.38-12.82,1-6.42-2.45-7-8.73,1.1-8.73,1.1a46.92,46.92,0,0,0,.15-9.08c-.46-3.94-3.13-3.4-4-1.8s-1.06,7.85-2.84,12.47a115.39,115.39,0,0,1-6.72,14.19A19.16,19.16,0,0,1,174.36,214.59Z" style="fill:#fff;stroke:#263238;stroke-linecap:round;stroke-linejoin:round"></path><path d="M201.25,207.42s.42,2.81-.66,4.14-6.58,1.71-8,.79-1.48-4.47,2.19-4.78A51.53,51.53,0,0,1,201.25,207.42Z" style="fill:#fff;stroke:#263238;stroke-linecap:round;stroke-linejoin:round"></path><path d="M202.71,202.11s1.55,2.76.51,4.79-5.26,2.79-8,2.07-1.76-4.46-.95-5.35,2.95-.56,3.94-.6S202.71,202.11,202.71,202.11Z" style="fill:#fff;stroke:#263238;stroke-linecap:round;stroke-linejoin:round"></path><path d="M203.67,198.23a3,3,0,0,1,.86,3.37c-.9,1.88-3.55,2.85-6.37,3.26s-3.9-1.66-4-3.64a2.36,2.36,0,0,1,2.43-2.66Z" style="fill:#fff;stroke:#263238;stroke-linecap:round;stroke-linejoin:round"></path><path d="M195.41,194.22s-1.06,4.72.81,5.35,8.77-.4,9.55-1.86,1.18-5.29-.53-5.5-9.14,1.55-9.14,1.55S196.37,193.46,195.41,194.22Z" style="fill:#fff;stroke:#263238;stroke-linecap:round;stroke-linejoin:round"></path><path d="M190.52,195.71a10.22,10.22,0,0,0,.72,3.37c.62,1.25,2.45,4,.33,7.36" style="fill:#fff;stroke:#263238;stroke-linecap:round;stroke-linejoin:round"></path><path d="M92,453.18s-2.21-5.1-7.31-6.21-7.1,4-7.1,4-6,9.1-9.32,12-5.1,5.77-4,7.32,4.21,4,12.86,1.77,12-4.66,14-7.54a19.73,19.73,0,0,1,5.32-4.88l.67-11.75Z" style="fill:#fff;stroke:#263238;stroke-linecap:round;stroke-linejoin:round"></path><path d="M87.8,462.94c-2.66,3.77-5.32,6.21-14.19,6.65-5,.25-7.89-.63-9.46-1.44a2.28,2.28,0,0,0,.14,2.11c1.11,1.55,4.21,4,12.86,1.77s12-4.66,14-7.54a19.73,19.73,0,0,1,5.32-4.88l.18-3.08C96.14,456.74,90.35,459.33,87.8,462.94Z" style="fill:#fff;stroke:#263238;stroke-linecap:round;stroke-linejoin:round"></path><path d="M124.84,466.93c6.65,0,8-4.21,6.43-6.21s-12.64-7.54-14.41-11.09a10.5,10.5,0,0,1-1.09-4.44C109.2,444.2,106,451,106,451l-8.87-3.1-.67,11.75a97.11,97.11,0,0,1,11.31,3.11C113.53,464.71,118.19,466.93,124.84,466.93Z" style="fill:#fff;stroke:#263238;stroke-linecap:round;stroke-linejoin:round"></path><path d="M109.31,460.72a84.2,84.2,0,0,0-12.68-4.19h0l0,3.12a99.05,99.05,0,0,1,11.1,3.07c5.77,2,10.43,4.21,17.08,4.21,4.32,0,6.38-1.77,6.89-3.56C124.05,468,113.67,462.8,109.31,460.72Z" style="fill:#fff;stroke:#263238;stroke-linecap:round;stroke-linejoin:round"></path><path d="M90.18,161.86s1.26,12.13,1.94,14.65,14.54,20.6,16.68,17.81,10.49-18.76,11-20.48.08-10.64.08-10.64a20.74,20.74,0,0,1-15.9,2.42C94.78,163.35,90.18,161.86,90.18,161.86Z" style="fill:#fff;stroke:#263238;stroke-linecap:round;stroke-linejoin:round"></path><path d="M85.23,140.39S82,135.72,78.42,137s-2.49,7.76.07,11,6.43,4.1,7.37,0A13.08,13.08,0,0,0,85.23,140.39Z" style="fill:#fff;stroke:#263238;stroke-linecap:round;stroke-linejoin:round"></path><path d="M122.54,134.73s2.44-5.64,4.74-1.63.48,10.46-.9,11.38-3,.27-3.37-2.4A73.31,73.31,0,0,1,122.54,134.73Z" style="fill:#fff;stroke:#263238;stroke-linecap:round;stroke-linejoin:round"></path><path d="M77.61,122.31c-.66-6.19,4.68-15.38,11.54-17.39a32.4,32.4,0,0,1,12.27-1.27s-.65-4.93,5.57-5.35,11.38,7.13,9.56,10.62-4.09,3.59-4.09,3.59l11.76,28s1.57,3.34,2.08,11.53-2.82,12.75-9.31,16.59-16.24,1.44-23.34-1.92-8.32-8.55-8.69-13.5.59-15-2.24-21.16S78.1,127,77.61,122.31Z" style="fill:#263238;stroke:#263238;stroke-linecap:round;stroke-linejoin:round"></path><path d="M114.51,110.85s-9.39-3.82-17.91-1S83.69,118.92,84.72,123s2.93,8.23,3.25,15.3,1.66,17.79,8.89,21,8.93,3.14,9.56,1.41,1.25-3.88,3.92-4.29,2.69,3.14,3.88,4.22,4.44-2,8.06-6.6,2.43-12,.86-18.47-1.62-10.7-2.56-15.9S116.39,111.62,114.51,110.85Z" style="fill:#fff;stroke:#263238;stroke-linecap:round;stroke-linejoin:round"></path><path d="M105.21,127.72a49.45,49.45,0,0,0-11.19.22c-5.91.84-6.7,2.29-6.65,3.28s.48,7.49,5.24,9.4,13-.73,14-2.9.82-10,.82-10Z" style="fill:#00CA7D;stroke:#263238;stroke-linecap:round;stroke-linejoin:round"></path><path d="M112.4,126.83A49.33,49.33,0,0,1,123.22,124c5.91-.82,7.07.36,7.3,1.32s1.6,7.34-2.46,10.49-12.71,2.87-14.3,1.07-3.53-9.35-3.53-9.35Z" style="fill:#00CA7D;stroke:#263238;stroke-linecap:round;stroke-linejoin:round"></path><line x1="107.48" y1="127.76" x2="110.23" y2="127.49" style="fill:none;stroke:#263238;stroke-linecap:round;stroke-linejoin:round"></line><line x1="87.34" y1="130.66" x2="84.35" y2="137.84" style="fill:none;stroke:#fff;stroke-linecap:round;stroke-linejoin:round"></line><path d="M110.49,131.59s4.14,10,2.91,10.93-6,2.54-7.21.46" style="fill:none;stroke:#263238;stroke-linecap:round;stroke-linejoin:round"></path><path d="M98.62,148S109,151.93,118,146.56" style="fill:none;stroke:#263238;stroke-linecap:round;stroke-linejoin:round"></path><path d="M90.23,125.56s2.19-4.77,9.46-3.83" style="fill:none;stroke:#263238;stroke-linecap:round;stroke-linejoin:round;stroke-width:2px"></path><path d="M111.29,124.18s4.08-3.73,8.28-1.79" style="fill:none;stroke:#263238;stroke-linecap:round;stroke-linejoin:round;stroke-width:2px"></path><path d="M121.94,127.32s-.5,5.14.6,7.41" style="fill:none;stroke:#263238;stroke-linecap:round;stroke-linejoin:round"></path><path d="M99.93,134.45c0,1.3-.46,2.38-1.15,2.42s-1.31-1-1.37-2.3.46-2.38,1.15-2.41S99.87,133.15,99.93,134.45Z" style="fill:#263238"></path><path d="M116.83,132.59c.06,1.3-.46,2.38-1.15,2.41s-1.3-1-1.36-2.3.45-2.38,1.15-2.41S116.77,131.28,116.83,132.59Z" style="fill:#263238"></path></g></svg>