<svg xmlns="http://www.w3.org/2000/svg" viewBox="0 0 64 80" x="0px" y="0px" width="30px" heigth="30px">
  <path d="M35.13778,46.696c15.63865-3.33293,15.87644-25.56026.35165-29.35152a1.50911,1.50911,0,0,0-.70345,2.93509,12.04507,12.04507,0,0,1,0,23.44105A1.51153,1.51153,0,0,0,35.13778,46.696Z" fill="#1E2022"/>
  <path d="M52.62811,30.38182a1.51908,1.51908,0,0,0,1.49771-1.739c-4.496-25.1763-39.73819-25.16628-44.22837.00026a1.50972,1.50972,0,0,0,2.9854.4521c3.88924-21.78159,34.37467-21.77068,38.25761.00022A1.502,1.502,0,0,0,52.62811,30.38182Z" fill="#1E2022"/>
  <path d="M35.3087,2.538A1.507,1.507,0,0,0,34.977,5.5335C66.34929,9.67061,66.33441,54.338,34.9766,58.46679a1.50694,1.50694,0,1,0,.33211,2.9955C70.23719,56.86087,70.22368,7.13191,35.3087,2.538Z" fill="#1E2022"/>
  <path d="M29.23731,20.27961a1.50915,1.50915,0,0,0-.70364-2.93514,15.06419,15.06419,0,0,0,0,29.31133,1.50937,1.50937,0,0,0,.70358-2.93516,12.04507,12.04507,0,0,1,.00006-23.441Z" fill="#1E2022"/>
  <path d="M54.12584,35.35747a1.50988,1.50988,0,0,0-2.98541-.45223c-3.8888,21.78134-34.37488,21.77059-38.25759-.00028a1.50974,1.50974,0,0,0-2.98538.45251C14.39424,60.53467,49.63563,60.52328,54.12584,35.35747Z" fill="#1E2022"/>
  <path d="M39.77169,32.00016a7.76475,7.76475,0,0,0-7.76-7.7601c-10.27137.36-10.2688,15.16173.00013,15.52015A7.76468,7.76468,0,0,0,39.77169,32.00016Z" fill="#1E2022"/>
  <path d="M29.04633,58.46678C-2.35548,54.24408-2.34213,9.7489,29.04661,5.53347a1.5069,1.5069,0,1,0-.332-2.99543c-35.06182,4.71353-34.90046,54.45544.17124,58.93434A1.50832,1.50832,0,0,0,29.04633,58.46678Z" fill="#1E2022"/>
</svg>
