<svg fill="#00CA7D" height="64px" width="64px" version="1.1" id="Layer_1" xmlns="http://www.w3.org/2000/svg" xmlns:xlink="http://www.w3.org/1999/xlink" viewBox="0 0 472.615 472.615" xml:space="preserve"><g id="SVGRepo_bgCarrier" stroke-width="0"></g><g id="SVGRepo_tracerCarrier" stroke-linecap="round" stroke-linejoin="round"></g><g id="SVGRepo_iconCarrier"> <g> <g> <path d="M433.291,266.523v-64.231h-61.148v-66.452C372.143,60.938,311.204,0,236.304,0c-74.9,0-135.84,60.938-135.84,135.839 v66.452h-61.14v64.231h42.43v19.692h-42.43v41.394h42.43v19.692h-42.43v41.394h42.43v19.692h-42.43v64.227h393.966v-64.227h-42.43 v-19.692h42.43v-41.394h-42.43v-19.692h42.43v-41.394h-42.43v-19.692H433.291z M274.964,406.498h-77.319l15.653-68.522 c-9.45-7.048-15.653-18.213-15.653-30.908c0-21.351,17.31-38.661,38.659-38.661c21.351,0,38.66,17.31,38.66,38.661 c0,12.695-6.202,23.86-15.654,30.908L274.964,406.498z M307.454,202.291h-142.3v-66.452c0-39.231,31.918-71.149,71.149-71.149 c39.231,0,71.15,31.918,71.15,71.149V202.291z"></path> </g> </g> </g></svg>